<svg width="20" height="20" viewBox="0 0 20 20" fill="none" xmlns="http://www.w3.org/2000/svg">
<g clip-path="url(#clip0_728_692)">
<path d="M16.9086 2.84203C12.9852 -0.947343 6.765 -0.947343 2.84156 2.84203C-1.04296 6.86399 -0.931556 13.2734 3.0904 17.1579C7.01384 20.9473 13.234 20.9473 17.1575 17.1579C21.042 13.136 20.9306 6.72656 16.9086 2.84203ZM16.6816 16.6821L16.6783 16.6787C12.9863 20.3673 7.00328 20.3646 3.31472 16.6726C-0.373844 12.9807 -0.371115 6.9977 3.32081 3.30914C7.01274 -0.379428 12.9958 -0.376699 16.6843 3.31519C18.4561 5.08854 19.4506 7.4932 19.449 9.99998C19.4491 12.5062 18.4537 14.9098 16.6816 16.6821Z" fill="white"/>
<path d="M15.6864 12.8821L13.7898 10.9922C13.3594 10.5607 12.6606 10.5599 12.2291 10.9903C12.2285 10.9909 12.2279 10.9915 12.2273 10.9922L11.1406 12.0788C11.0584 12.1613 10.9288 12.1726 10.8335 12.1058C10.2387 11.6902 9.68199 11.2226 9.16975 10.7087C8.71099 10.2509 8.28897 9.75785 7.90757 9.23388C7.83844 9.13975 7.84848 9.00924 7.93118 8.92678L9.04486 7.8131C9.47483 7.3823 9.47483 6.68474 9.04486 6.25394L7.14824 4.35732C6.71119 3.93949 6.02277 3.93949 5.58572 4.35732L4.98502 4.95802C4.07781 5.85502 3.75395 7.18693 4.14805 8.40031C4.44213 9.28806 4.85783 10.1308 5.38323 10.9044C5.85623 11.6137 6.39887 12.2739 7.00313 12.8753C7.66007 13.5369 8.38776 14.1243 9.17312 14.6268C10.0365 15.1902 10.9844 15.6117 11.9809 15.8755C12.2371 15.9386 12.5 15.9704 12.7639 15.97C13.6684 15.9644 14.5337 15.6003 15.1701 14.9575L15.6865 14.4412C16.1164 14.0104 16.1164 13.3129 15.6864 12.8821ZM15.2085 13.9809C15.2081 13.9813 15.2077 13.9818 15.2072 13.9823L15.2105 13.9721L14.6942 14.4885C14.0308 15.1603 13.0646 15.4367 12.1462 15.2174C11.221 14.9698 10.3414 14.5756 9.54088 14.0498C8.79713 13.5744 8.10788 13.0188 7.48562 12.3927C6.91308 11.8244 6.39871 11.2003 5.95008 10.5298C5.45936 9.8084 5.07095 9.02249 4.79589 8.19446C4.48058 7.22173 4.74187 6.15436 5.47087 5.43727L6.07157 4.83657C6.23858 4.6688 6.50996 4.66821 6.67769 4.83522C6.67812 4.83566 6.6786 4.83609 6.67903 4.83657L8.57566 6.73319C8.74342 6.9002 8.74402 7.17158 8.577 7.33931C8.57657 7.33974 8.57613 7.34018 8.57566 7.34065L7.46197 8.45434C7.14242 8.77041 7.10224 9.27267 7.36749 9.63553C7.77029 10.1883 8.21604 10.7085 8.70055 11.1913C9.24074 11.7339 9.828 12.2274 10.4554 12.6661C10.818 12.919 11.3095 12.8764 11.6231 12.5649L12.6996 11.4714C12.8667 11.3037 13.138 11.3031 13.3058 11.4701C13.3062 11.4705 13.3066 11.471 13.3071 11.4714L15.2071 13.3748C15.3749 13.5418 15.3755 13.8132 15.2085 13.9809Z" fill="white"/>
</g>
<defs>
<clipPath id="clip0_728_692">
<rect width="20" height="20" fill="white"/>
</clipPath>
</defs>
</svg>
