<svg width="26" height="26" viewBox="0 0 26 26" fill="none" xmlns="http://www.w3.org/2000/svg">
<g clip-path="url(#clip0_289_97)">
<path d="M13.0001 5.133C10.5501 5.133 8.55664 7.12646 8.55664 9.57641C8.55664 12.0263 10.5501 14.0198 13.0001 14.0198C15.45 14.0198 17.4435 12.0263 17.4435 9.57641C17.4435 7.12646 15.45 5.133 13.0001 5.133Z" fill="white"/>
<path d="M12.0018 20.3044L11.978 20.2826L11.4118 19.7703L10.0795 18.5648L8.63077 18.7207L7.74423 18.8157L7.53404 18.8385L6.85718 18.9111L4.72559 23.4409L8.02657 23.4846L10.1632 26L12.5924 20.8386L12.0018 20.3044Z" fill="white"/>
<path d="M19.1429 18.9111L18.466 18.8385L18.2559 18.8162L17.3693 18.7207L15.9206 18.5648L14.5883 19.7703L14.0221 20.2826L13.9982 20.3044L13.4077 20.8386L15.8369 26L17.9735 23.4846L21.2745 23.4409L19.1429 18.9111Z" fill="white"/>
<path d="M20.7818 9.57643L22.1076 6.6172L19.2956 5.00246L18.6289 1.82894L15.4046 2.17521L12.9999 0L10.5951 2.17527L7.37081 1.82899L6.7041 5.00246L3.89209 6.61715L5.21784 9.57638L3.89209 12.5356L6.7041 14.1503L7.37081 17.3238L7.61659 17.2974L8.50364 17.2019L9.39018 17.107L9.62783 17.0816H9.62834L10.5951 16.9775L11.3222 17.6351L12.0895 18.3292L12.3287 18.5455L12.68 18.8634L12.9999 19.1528L13.3198 18.8634L13.6711 18.5455L13.9103 18.3292L14.5069 17.7899L14.5075 17.7894L15.4047 16.9775L16.9716 17.1456H16.9721L17.1316 17.1629L17.4961 17.202H17.4966L18.3832 17.2975L18.629 17.3239L19.2957 14.1503L22.1077 12.5357L20.7818 9.57643ZM12.9999 15.5431C9.71005 15.5431 7.03311 12.8667 7.03311 9.57638C7.03311 6.28657 9.71005 3.60963 12.9999 3.60963C16.2897 3.60963 18.9666 6.28657 18.9666 9.57638C18.9666 12.8667 16.2897 15.5431 12.9999 15.5431Z" fill="white"/>
</g>
<defs>
<clipPath id="clip0_289_97">
<rect width="26" height="26" fill="white"/>
</clipPath>
</defs>
</svg>
