<svg width="39" height="39" viewBox="0 0 39 39" fill="none" xmlns="http://www.w3.org/2000/svg">
<path d="M19.7148 0.685059C14.6757 0.685059 9.84301 2.68684 6.27982 6.25003C2.71662 9.81322 0.714844 14.6459 0.714844 19.6851C0.714843 24.7242 2.71662 29.5569 6.27981 33.1201C9.843 36.6833 14.6757 38.6851 19.7148 38.6851L19.7148 19.6851V0.685059Z" fill="white"/>
<path d="M19.7148 38.6851C24.754 38.6851 29.5867 36.6833 33.1499 33.1201C36.7131 29.5569 38.7148 24.7242 38.7148 19.6851C38.7148 14.646 36.7131 9.81323 33.1499 6.25003C29.5867 2.68684 24.754 0.685061 19.7148 0.685061L19.7148 19.6851L19.7148 38.6851Z" fill="#4C40F7"/>
</svg>
