<svg width="38" height="90" viewBox="0 0 38 90" fill="none" xmlns="http://www.w3.org/2000/svg">
<path d="M16.8125 89.625L21.1875 89.625C27.2715 89.625 32.125 84.7031 32.125 78.6875L32.125 65.5625C32.125 59.4785 27.2715 54.625 21.1875 54.625L16.8125 54.625C10.7969 54.625 5.875 59.4785 5.875 65.5625L5.875 78.6875C5.875 84.7031 10.7969 89.625 16.8125 89.625ZM29.9375 78.6875C29.9375 83.4727 26.041 87.3691 21.1875 87.4375L20.0937 87.4375L20.0937 76.5L29.9375 76.5L29.9375 78.6875ZM8.0625 65.5625C8.13086 60.709 12.0273 56.8125 16.8125 56.8125L21.1875 56.8125C26.041 56.8125 29.9375 60.709 29.9375 65.5625L29.9375 74.3125L8.0625 74.3125L8.0625 65.5625ZM8.0625 76.5L17.9062 76.5L17.9062 87.4375L16.8125 87.4375C12.0273 87.3691 8.13086 83.4727 8.0625 78.6875L8.0625 76.5Z" fill="#FF7425"/>
<circle cx="18.5" cy="42.5" r="2.5" fill="white"/>
<circle opacity="0.4" cx="18.5" cy="27.5" r="4.5" fill="white"/>
<circle opacity="0.1" cx="18.5" cy="7.5" r="7.5" fill="white"/>
</svg>
