<svg width="69" height="69" viewBox="0 0 69 69" fill="none" xmlns="http://www.w3.org/2000/svg">
<path d="M37.7344 8.625H31.2656C30.6705 8.625 30.1875 8.142 30.1875 7.54688C30.1875 6.95175 30.6705 6.46875 31.2656 6.46875H37.7344C38.3295 6.46875 38.8125 6.95175 38.8125 7.54688C38.8125 8.142 38.3295 8.625 37.7344 8.625Z" fill="#33CC79"/>
<path d="M46.3594 66.8438H22.6406C19.6672 66.8438 17.25 64.4244 17.25 61.4531V24.7969C17.25 24.2018 17.733 23.7188 18.3281 23.7188C18.9232 23.7188 19.4062 24.2018 19.4062 24.7969V61.4531C19.4062 63.2363 20.8574 64.6875 22.6406 64.6875H46.3594C48.1426 64.6875 49.5938 63.2363 49.5938 61.4531V24.7969C49.5938 24.2018 50.0768 23.7188 50.6719 23.7188C51.267 23.7188 51.75 24.2018 51.75 24.7969V61.4531C51.75 64.4244 49.3328 66.8438 46.3594 66.8438Z" fill="#33CC79"/>
<path d="M50.6719 32.3438C50.0768 32.3438 49.5938 31.8608 49.5938 31.2656V7.54688C49.5938 5.76366 48.1426 4.3125 46.3594 4.3125H22.6406C20.8574 4.3125 19.4062 5.76366 19.4062 7.54688V31.2656C19.4062 31.8608 18.9232 32.3438 18.3281 32.3438C17.733 32.3438 17.25 31.8608 17.25 31.2656V7.54688C17.25 4.57556 19.6672 2.15625 22.6406 2.15625H46.3594C49.3328 2.15625 51.75 4.57556 51.75 7.54688V31.2656C51.75 31.8608 51.267 32.3438 50.6719 32.3438Z" fill="#33CC79"/>
<path d="M57.1406 13.0453C56.5455 13.0453 56.0625 12.6701 56.0625 12.075V11.8594C56.0625 11.2643 56.5455 10.7812 57.1406 10.7812C57.7357 10.7812 58.2188 11.2643 58.2188 11.8594C58.2188 12.4545 57.7357 13.0453 57.1406 13.0453Z" fill="#33CC79"/>
<path d="M57.1406 17.3578C56.5455 17.3578 56.0625 16.9826 56.0625 16.3875V16.1719C56.0625 15.5768 56.5455 15.0938 57.1406 15.0938C57.7357 15.0938 58.2188 15.5768 58.2188 16.1719C58.2188 16.767 57.7357 17.3578 57.1406 17.3578Z" fill="#33CC79"/>
<path d="M57.1406 21.6703C56.5455 21.6703 56.0625 21.2951 56.0625 20.7V20.4844C56.0625 19.8893 56.5455 19.4062 57.1406 19.4062C57.7357 19.4062 58.2188 19.8893 58.2188 20.4844C58.2188 21.0795 57.7357 21.6703 57.1406 21.6703Z" fill="#33CC79"/>
<path d="M11.8594 49.486C11.2643 49.486 10.7812 49.1108 10.7812 48.5157V48.3C10.7812 47.7049 11.2643 47.2219 11.8594 47.2219C12.4545 47.2219 12.9375 47.7049 12.9375 48.3C12.9375 48.8952 12.4545 49.486 11.8594 49.486Z" fill="#33CC79"/>
<path d="M11.8594 53.7985C11.2643 53.7985 10.7812 53.4233 10.7812 52.8282V52.6125C10.7812 52.0174 11.2643 51.5344 11.8594 51.5344C12.4545 51.5344 12.9375 52.0174 12.9375 52.6125C12.9375 53.2077 12.4545 53.7985 11.8594 53.7985Z" fill="#33CC79"/>
<path d="M11.8594 58.111C11.2643 58.111 10.7812 57.7358 10.7812 57.1407V56.925C10.7812 56.3299 11.2643 55.8469 11.8594 55.8469C12.4545 55.8469 12.9375 56.3299 12.9375 56.925C12.9375 57.5202 12.4545 58.111 11.8594 58.111Z" fill="#33CC79"/>
<path d="M53.5634 58.2188C53.4879 58.2188 53.4103 58.2123 53.3348 58.195C52.7527 58.07 52.3839 57.4964 52.509 56.9142L53.2206 53.6152C53.3068 53.2098 53.6195 52.8928 54.0205 52.7958C55.0383 52.55 56.0302 52.136 56.9681 51.5646C57.3153 51.3489 57.7616 51.3554 58.1088 51.5753L60.2435 52.9403L61.5653 51.6077L60.2003 49.4902C59.9761 49.1431 59.9718 48.6967 60.1853 48.3453C60.7567 47.4073 61.1707 46.4154 61.4143 45.3977C61.5113 44.9966 61.8262 44.6861 62.2294 44.5956L64.6875 44.05V42.2021L62.2315 41.6566C61.8283 41.566 61.5135 41.2555 61.4165 40.8545C61.1728 39.8367 60.7567 38.8448 60.1874 37.9069C59.9718 37.5554 59.9761 37.1112 60.2003 36.7641L61.5674 34.6272L60.2478 33.3076L58.1109 34.6747C57.7638 34.8967 57.3196 34.9011 56.9703 34.6854C56.0302 34.114 55.0383 33.7 54.0227 33.4542C53.6195 33.3572 53.309 33.0381 53.2227 32.6348L52.6923 30.1875H51.75C51.1549 30.1875 50.6719 29.7045 50.6719 29.1094C50.6719 28.5143 51.1549 28.0312 51.75 28.0312H53.5613C54.068 28.0312 54.5078 28.387 54.6135 28.883L55.1892 31.5416C55.9784 31.781 56.7525 32.1044 57.4986 32.5076L59.8144 31.0263C60.2413 30.7546 60.7976 30.815 61.1577 31.1729L63.7043 33.7173C64.0622 34.0752 64.1226 34.6337 63.8487 35.0606L62.3674 37.3764C62.7706 38.1247 63.094 38.8987 63.3334 39.6901L65.9963 40.2809C66.4923 40.3909 66.8438 40.8308 66.8438 41.3353V44.9147C66.8438 45.4193 66.4923 45.8591 65.9985 45.9669L63.3355 46.5577C63.0962 47.3491 62.7727 48.1232 62.3695 48.8692L63.8487 51.1635C64.1247 51.5883 64.0665 52.1489 63.7086 52.5068L61.162 55.0728C60.8019 55.4329 60.2435 55.4933 59.8165 55.2216L57.5007 53.7402C56.7525 54.1434 55.9806 54.4669 55.1914 54.7062L54.6157 57.3649C54.5057 57.8738 54.0572 58.2188 53.5634 58.2188Z" fill="#33CC79"/>
<path d="M54.7494 48.6838C54.4044 48.6838 54.0637 48.5156 53.8545 48.2073C53.5225 47.7135 53.654 47.0429 54.1499 46.7108C55.3467 45.9044 56.0625 44.5632 56.0625 43.125C56.0625 40.7467 54.1284 38.8125 51.75 38.8125C51.4568 38.8125 51.1657 38.8427 50.8875 38.8988C50.3097 39.0152 49.7339 38.6443 49.6132 38.0578C49.4946 37.4735 49.8698 36.9042 50.4541 36.7856C50.8768 36.7015 51.3123 36.6562 51.75 36.6562C55.3165 36.6562 58.2188 39.5586 58.2188 43.125C58.2188 45.2834 57.1471 47.293 55.3488 48.5005C55.1655 48.6234 54.9564 48.6838 54.7494 48.6838Z" fill="#33CC79"/>
<path d="M17.25 32.3437C13.6836 32.3437 10.7812 29.4414 10.7812 25.875C10.7812 23.7079 11.8594 21.6961 13.6663 20.4886C14.1558 20.1609 14.8285 20.2903 15.1606 20.7884C15.4905 21.2821 15.3568 21.9527 14.8609 22.2826C13.6577 23.0891 12.9375 24.4303 12.9375 25.875C12.9375 28.2533 14.8717 30.1875 17.25 30.1875C17.5389 30.1875 17.8236 30.1594 18.0953 30.1034C18.6667 29.9848 19.2467 30.3621 19.3653 30.9486C19.4839 31.533 19.1044 32.1001 18.52 32.2165C18.1082 32.3006 17.6856 32.3437 17.25 32.3437Z" fill="#33CC79"/>
<path d="M17.25 40.9687H15.4387C14.932 40.9687 14.4922 40.613 14.3865 40.117L13.8108 37.4584C13.0216 37.219 12.2475 36.8956 11.5014 36.4924L9.18563 37.9737C8.75653 38.2454 8.20237 38.1872 7.84228 37.8271L5.29575 35.2827C4.93781 34.9248 4.87744 34.3663 5.15128 33.9394L6.63263 31.6236C6.22941 30.8753 5.90597 30.1012 5.66663 29.3099L3.00366 28.7191C2.50772 28.6091 2.15625 28.1692 2.15625 27.6647V24.0853C2.15625 23.5807 2.50772 23.1409 3.0015 23.0331L5.66447 22.4422C5.90381 21.6509 6.22725 20.8768 6.63047 20.1307L5.15344 17.8343C4.87744 17.4096 4.93566 16.8489 5.29359 16.491L7.84012 13.9251C8.19591 13.5628 8.75653 13.5024 9.18563 13.7763L11.5014 15.2576C12.2497 14.8544 13.0216 14.531 13.8108 14.2916L14.3865 11.633C14.5116 11.0486 15.0959 10.6777 15.6673 10.8071C16.2495 10.9322 16.6182 11.5057 16.4932 12.0879L15.7816 15.387C15.6953 15.7924 15.3827 16.1093 14.9816 16.2064C13.9639 16.4522 12.972 16.8662 12.0319 17.4376C11.6826 17.6532 11.2384 17.6467 10.8912 17.4268L8.75653 16.0619L7.43259 17.3945L8.7975 19.5119C9.02391 19.8591 9.02822 20.3054 8.81259 20.6569C8.24119 21.5948 7.82719 22.5867 7.58353 23.6045C7.4865 24.0055 7.17169 24.316 6.76847 24.4066L4.3125 24.95V26.7979L6.76847 27.3434C7.17169 27.434 7.4865 27.7445 7.58353 28.1455C7.82719 29.1633 8.24334 30.1552 8.81259 31.0931C9.02822 31.4446 9.02391 31.8888 8.79966 32.2359L7.43259 34.3706L8.75222 35.6902L10.8891 34.3232C11.2362 34.1032 11.6826 34.0989 12.0297 34.3124C12.9698 34.8838 13.9617 35.2978 14.9773 35.5436C15.3805 35.6407 15.691 35.9598 15.7773 36.363L16.3077 38.8125H17.25C17.8451 38.8125 18.3281 39.2955 18.3281 39.8906C18.3281 40.4857 17.8451 40.9687 17.25 40.9687Z" fill="#33CC79"/>
<path d="M33.4221 39.8906C33.3359 39.8906 33.2496 39.8798 33.1612 39.8583C32.5812 39.7138 32.2319 39.1295 32.3763 38.5516L34.5326 29.9266C34.6749 29.3466 35.2506 28.9972 35.8393 29.1417C36.4193 29.2862 36.7686 29.8705 36.6241 30.4484L34.4679 39.0734C34.3471 39.565 33.9073 39.8906 33.4221 39.8906Z" fill="#33CC79"/>
<path d="M39.8907 39.8906C39.6147 39.8906 39.3387 39.7849 39.1274 39.5758C38.7069 39.1553 38.7069 38.4718 39.1274 38.0513L42.6787 34.5L39.1295 30.9508C38.709 30.5303 38.709 29.8468 39.1295 29.4263C39.55 29.0058 40.2335 29.0058 40.654 29.4263L44.9665 33.7388C45.387 34.1593 45.387 34.8428 44.9665 35.2633L40.654 39.5758C40.4427 39.7849 40.1667 39.8906 39.8907 39.8906Z" fill="#33CC79"/>
<path d="M29.1094 39.8906C28.8334 39.8906 28.5574 39.7849 28.3461 39.5758L24.0336 35.2633C23.6131 34.8428 23.6131 34.1593 24.0336 33.7388L28.3461 29.4263C28.7666 29.0058 29.4501 29.0058 29.8706 29.4263C30.291 29.8468 30.291 30.5303 29.8706 30.9508L26.3214 34.5L29.8706 38.0492C30.291 38.4696 30.291 39.1532 29.8706 39.5736C29.6614 39.7849 29.3854 39.8906 29.1094 39.8906Z" fill="#33CC79"/>
</svg>
