<svg width="67" height="67" viewBox="0 0 67 67" fill="none" xmlns="http://www.w3.org/2000/svg">
<path d="M13.6073 2.09229C11.8856 2.09229 10.4688 3.50911 10.4688 5.23091V38.7309C10.4688 40.1281 12.5645 40.1281 12.5645 38.7309V12.5652H54.4334V38.7309C54.4017 40.1584 56.5592 40.1584 56.5272 38.7309V5.23091C56.5272 3.50911 55.1124 2.09229 53.3906 2.09229H13.6073ZM13.6073 4.18812H53.3906C53.9887 4.18812 54.4334 4.63281 54.4334 5.23091V10.4693H12.5645V5.23091C12.5645 4.63281 13.0093 4.18812 13.6073 4.18812ZM15.7031 6.27985C15.1249 6.27985 14.6562 6.74859 14.6562 7.32674C14.6562 7.90493 15.1249 8.37351 15.7031 8.37351C16.2813 8.37351 16.75 7.90493 16.75 7.32674C16.75 6.74859 16.2813 6.27985 15.7031 6.27985ZM19.8906 6.27985C19.3125 6.27985 18.8438 6.74859 18.8438 7.32674C18.8438 7.90493 19.3125 8.37351 19.8906 8.37351C20.4688 8.37351 20.9375 7.90493 20.9375 7.32674C20.9375 6.74859 20.4688 6.27985 19.8906 6.27985ZM24.0781 6.27985C23.5 6.27985 23.0312 6.74859 23.0312 7.32674C23.0312 7.90493 23.5 8.37351 24.0781 8.37351C24.6563 8.37351 25.125 7.90493 25.125 7.32674C25.125 6.74859 24.6563 6.27985 24.0781 6.27985ZM38.6812 6.2819C37.2678 6.37805 37.3642 8.41031 38.7303 8.37569H51.2969C52.6621 8.34403 52.6621 6.31217 51.2969 6.2819H38.6812ZM5.23847 8.37569C3.51667 8.37569 2.09375 9.79046 2.09375 11.5123V49.2017C2.09375 50.9235 3.51667 52.3403 5.23847 52.3403H61.7677C63.4895 52.3403 64.9062 50.9235 64.9062 49.2017V11.5121C64.9062 9.79034 63.4895 8.37556 61.7677 8.37556H59.6739C58.2468 8.34391 58.2468 10.501 59.6739 10.4693H61.7677C62.3658 10.4693 62.8105 10.914 62.8105 11.5121V41.8756H4.1875V11.5121C4.1875 10.914 4.64041 10.4693 5.23847 10.4693H7.32403C8.75117 10.501 8.75117 8.34391 7.32403 8.37556L5.23847 8.37569ZM36.6529 16.7322C36.1927 16.7291 35.7845 17.0271 35.6469 17.4664L29.3636 36.308C28.9206 37.633 30.908 38.2975 31.351 36.9725L37.6343 18.1247C37.8713 17.4468 37.371 16.737 36.6529 16.7322ZM41.2043 22.7845L46.5205 27.2194L41.2043 31.6482C40.0685 32.5375 41.471 34.2155 42.5477 33.2553L48.8228 28.0229C49.3239 27.6044 49.3239 26.8344 48.8228 26.4159L42.5477 21.1754C42.3601 21.0148 42.1219 20.9257 41.8218 20.9261C40.8323 21.0127 40.4735 22.193 41.2043 22.7845ZM25.0984 20.928C24.8627 20.9359 24.6364 21.023 24.4564 21.1753L18.1751 26.4158C17.6741 26.8343 17.6741 27.6043 18.1751 28.0228L24.4564 33.2552C25.5367 34.2614 26.9794 32.5274 25.7936 31.6481L20.4775 27.2192L25.7936 22.7844C26.5671 22.151 26.0977 20.8975 25.0984 20.928ZM4.1875 43.9714H62.8105V49.2017C62.8105 49.7998 62.3658 50.2444 61.7677 50.2444H5.23847C4.64041 50.2444 4.1875 49.7998 4.1875 49.2017V43.9714ZM35.651 46.0632L31.3551 46.0652C30.0207 46.2247 30.1103 48.1151 31.4042 48.1508H35.5938C37.0315 48.2778 37.1511 46.092 35.651 46.0632ZM27.6277 54.3522C27.2075 54.3443 26.8226 54.5864 26.6503 54.9697C26.1462 56.051 25.243 57.3136 23.6835 58.6215H21.9844C20.2626 58.6215 18.8478 60.0465 18.8478 61.7683V63.8539C18.8458 64.4321 19.3125 64.9025 19.8906 64.9048H47.1073C47.6887 64.9069 48.1605 64.4353 48.1583 63.8539V61.7683C48.1583 60.0465 46.7354 58.6215 45.0136 58.6215H43.3165C41.7571 57.3137 40.8537 56.0509 40.3497 54.9697C40.1724 54.5764 39.7723 54.3322 39.3416 54.3543C38.5937 54.3938 38.1266 55.1807 38.4522 55.8552C38.8603 56.7305 39.4835 57.6693 40.3231 58.6215H26.6769C27.5165 57.6693 28.1397 56.7305 28.5478 55.8552C28.8802 55.1686 28.3903 54.3685 27.6277 54.3522ZM21.9844 60.7173H45.0136C45.6116 60.7173 46.0645 61.1702 46.0645 61.7683V62.8111H20.9416V61.7683C20.9416 61.1702 21.3863 60.7173 21.9844 60.7173Z" fill="#33CC79"/>
</svg>
