<svg width="74" height="74" viewBox="0 0 74 74" fill="none" xmlns="http://www.w3.org/2000/svg">
<path d="M67.161 15.8427L62.9901 15.2821C62.7658 14.5982 62.4967 13.9479 62.1828 13.32L64.728 9.96755C64.9858 9.63119 64.9522 9.16028 64.6495 8.86876L60.4225 4.64179C60.1198 4.33906 59.6489 4.31664 59.3237 4.56331L55.9713 7.10846C55.3434 6.79452 54.6931 6.52543 54.0092 6.30119L53.4486 2.13028C53.3925 1.71543 53.0337 1.40149 52.6189 1.40149H46.6428C46.2167 1.40149 45.8692 1.71543 45.8131 2.13028L45.2525 6.30119C44.5686 6.52543 43.9183 6.79452 43.2904 7.10846L39.938 4.56331C39.6016 4.30543 39.1307 4.33906 38.8392 4.64179L34.601 8.85755C34.2983 9.16028 34.2758 9.63119 34.5225 9.95634L36.4174 12.4454C34.0628 11.8288 31.6186 11.6494 29.1295 11.9185C19.9804 12.9388 12.6364 20.3163 11.6722 29.4766C10.9995 35.8003 13.2867 41.8885 17.9398 46.1827C20.8213 48.8512 22.4807 52.5063 22.4807 56.2175V56.3072H22.1107C20.3055 56.3072 18.8367 57.776 18.8367 59.5812C18.8367 60.5454 19.2628 61.4088 19.9355 62.0142C19.2628 62.6085 18.8367 63.4718 18.8367 64.4472C18.8367 66.2524 20.3055 67.7212 22.1107 67.7212H23.0861V69.3918C23.0861 71.1521 24.5213 72.5872 26.2816 72.5872H36.5295C38.2898 72.5872 39.7249 71.1521 39.7249 69.3918V67.7212H40.7004C42.5055 67.7212 43.9743 66.2524 43.9743 64.4472C43.9743 63.483 43.5371 62.6197 42.8755 62.0142C43.5483 61.42 43.9743 60.5566 43.9743 59.5812C43.9743 57.776 42.5055 56.3072 40.7004 56.3072H40.3304V56.2175C40.3304 52.4615 41.9674 48.8848 44.9274 46.1266C47.3604 43.8618 49.1768 41.0251 50.2195 37.8969H52.6301C53.0561 37.8969 53.4037 37.583 53.4598 37.1682L54.0204 32.9972C54.7043 32.773 55.3546 32.5039 55.9825 32.19L59.3237 34.7575C59.6601 35.0154 60.131 34.9818 60.4225 34.6791L64.6495 30.4521C64.9522 30.1494 64.9746 29.6785 64.728 29.3533L62.1828 26.0121C62.4967 25.3842 62.7658 24.7339 62.9901 24.05L67.161 23.4894C67.5758 23.4333 67.8898 23.0745 67.8898 22.6597V16.6836C67.8898 16.2463 67.5758 15.8988 67.161 15.8427ZM38.0319 69.403C38.0319 70.2327 37.3592 70.9166 36.5183 70.9166H26.2704C25.4407 70.9166 24.7567 70.2439 24.7567 69.403V67.7324H38.0207V69.403H38.0319ZM42.2813 64.4585C42.2813 65.333 41.5637 66.0506 40.6892 66.0506H38.8728H23.927H22.1107C21.2361 66.0506 20.5186 65.333 20.5186 64.4585C20.5186 63.5839 21.2361 62.8663 22.1107 62.8663H40.6892C41.5637 62.8775 42.2813 63.5839 42.2813 64.4585ZM42.2813 59.6036C42.2813 60.4782 41.5637 61.1957 40.6892 61.1957H22.1107C21.2361 61.1957 20.5186 60.4782 20.5186 59.6036C20.5186 58.7291 21.2361 58.0115 22.1107 58.0115H23.3216H39.4783H40.6892C41.5637 58.0115 42.2813 58.7179 42.2813 59.6036ZM31.3943 41.9333C29.6901 41.9333 28.2998 40.543 28.2998 38.8388C28.2998 37.1345 29.6901 35.7442 31.3943 35.7442C33.0986 35.7442 34.4889 37.1345 34.4889 38.8388C34.4889 40.543 33.1098 41.9333 31.3943 41.9333ZM43.7613 44.9157C40.4537 47.9879 38.6261 52.013 38.6261 56.24V56.3297H32.224V43.5254C34.4552 43.1218 36.1595 41.1821 36.1595 38.8276C36.1595 36.1927 34.018 34.0512 31.3831 34.0512C28.7483 34.0512 26.6067 36.1927 26.6067 38.8276C26.6067 41.1709 28.311 43.1218 30.5422 43.5254V56.3297H24.1401V56.24C24.1401 52.0579 22.2901 47.943 19.061 44.9606C14.8116 41.0363 12.7149 35.4639 13.3316 29.6672C14.2173 21.2918 20.9334 14.5309 29.3089 13.6003C31.8204 13.32 34.2758 13.5666 36.6304 14.2842C36.4958 14.6094 36.3725 14.9345 36.2604 15.2709L32.0895 15.8315C31.6746 15.8875 31.3607 16.2463 31.3607 16.6612V22.6372C31.3607 23.0633 31.6746 23.4109 32.0895 23.4669L36.2604 24.0275C36.4846 24.7115 36.7537 25.3618 37.0677 25.9897L34.5225 29.3309C34.2646 29.6672 34.2983 30.1382 34.601 30.4297L38.828 34.6566C39.1307 34.9594 39.6016 34.9818 39.9267 34.7351L43.2792 32.19C43.907 32.5039 44.5574 32.773 45.2413 32.9972L45.8019 37.1682C45.858 37.583 46.2167 37.8969 46.6316 37.8969H48.4255C47.4613 40.5654 45.858 42.976 43.7613 44.9157ZM66.208 21.9197L62.2277 22.4579C61.8913 22.5027 61.6222 22.7382 61.5325 23.0633C61.2634 23.9939 60.9046 24.8797 60.4561 25.6869C60.288 25.9785 60.3216 26.3372 60.5234 26.6063L62.9564 29.8018L59.7722 32.986L56.5767 30.553C56.3077 30.3512 55.9489 30.3288 55.6574 30.4857C54.8501 30.9342 53.9643 31.3042 53.0337 31.5621C52.7086 31.6518 52.4731 31.9321 52.4283 32.2572L51.8901 36.2375H47.3828L46.8446 32.2572C46.7998 31.9209 46.5643 31.6518 46.2392 31.5621C45.3086 31.293 44.4228 30.9342 43.6155 30.4857C43.324 30.3176 42.9652 30.3512 42.6961 30.553L39.5007 32.986L36.3164 29.8018L38.7495 26.6063C38.9513 26.3372 38.9737 25.9785 38.8167 25.6869C38.3683 24.8797 37.9983 23.9939 37.7404 23.0633C37.6507 22.7382 37.3704 22.5027 37.0452 22.4579L33.0649 21.9197V17.4124L37.0452 16.8742C37.3816 16.8294 37.6507 16.5939 37.7404 16.2688C38.0095 15.3382 38.3683 14.4636 38.8167 13.6451C38.9849 13.3536 38.9513 12.9948 38.7495 12.7257L36.3164 9.53028L39.5007 6.34603L42.6961 8.77907C42.9652 8.98088 43.324 9.00331 43.6155 8.84634C44.434 8.39785 45.3086 8.02785 46.2392 7.76997C46.5643 7.68028 46.7998 7.39997 46.8446 7.07482L47.3828 3.09452H51.8901L52.4283 7.07482C52.4731 7.41119 52.7086 7.68028 53.0337 7.76997C53.9643 8.03906 54.8389 8.39785 55.6574 8.84634C55.9489 9.00331 56.3077 8.98088 56.5767 8.77907L59.7722 6.34603L62.9564 9.53028L60.5234 12.7257C60.3216 12.9948 60.2992 13.3536 60.4561 13.6451C60.9046 14.4524 61.2746 15.3382 61.5325 16.2688C61.6222 16.5939 61.9025 16.8294 62.2277 16.8742L66.208 17.4124V21.9197Z" fill="#33CC79"/>
<path d="M49.625 11.6045C45.185 11.6045 41.5635 15.2148 41.5635 19.666C41.5635 24.1172 45.185 27.7275 49.625 27.7275C54.065 27.7275 57.6865 24.106 57.6865 19.666C57.6865 15.226 54.0762 11.6045 49.625 11.6045ZM49.625 26.0345C46.1044 26.0345 43.2453 23.1754 43.2453 19.6548C43.2453 16.1342 46.1044 13.2751 49.625 13.2751C53.1456 13.2751 56.0047 16.1342 56.0047 19.6548C56.0047 23.1754 53.1456 26.0345 49.625 26.0345Z" fill="#33CC79"/>
<path d="M51.4192 48.9297C51.094 48.6045 50.5558 48.6045 50.2307 48.9297C49.9055 49.2548 49.9055 49.793 50.2307 50.1181L54.2222 54.1097C54.3904 54.2778 54.6034 54.3563 54.8164 54.3563C55.0295 54.3563 55.2425 54.2778 55.4107 54.1097C55.7358 53.7845 55.7358 53.2463 55.4107 52.9212L51.4192 48.9297Z" fill="#33CC79"/>
<path d="M46.9342 50.2976C46.4745 50.2976 46.0933 50.6788 46.0933 51.1385V56.7782C46.0933 57.2379 46.4745 57.6191 46.9342 57.6191C47.3939 57.6191 47.7751 57.2379 47.7751 56.7782V51.1385C47.7751 50.6788 47.3939 50.2976 46.9342 50.2976Z" fill="#33CC79"/>
<path d="M58.0905 44.7811H52.4508C51.9911 44.7811 51.6099 45.1623 51.6099 45.622C51.6099 46.0817 51.9911 46.4629 52.4508 46.4629H58.0905C58.5502 46.4629 58.9314 46.0817 58.9314 45.622C58.9314 45.1623 58.5502 44.7811 58.0905 44.7811Z" fill="#33CC79"/>
<path d="M13.6119 12.1427C13.78 12.3109 13.9931 12.3894 14.2061 12.3894C14.4191 12.3894 14.6322 12.3109 14.8003 12.1427C15.1255 11.8176 15.1255 11.2794 14.8003 10.9543L10.82 6.96274C10.4949 6.63758 9.95671 6.63758 9.63156 6.96274C9.30641 7.28789 9.30641 7.82607 9.63156 8.15122L13.6119 12.1427Z" fill="#33CC79"/>
<path d="M18.108 10.7748C18.5677 10.7748 18.9489 10.3936 18.9489 9.93385V4.29416C18.9489 3.83446 18.5677 3.45325 18.108 3.45325C17.6483 3.45325 17.2671 3.82325 17.2671 4.29416V9.93385C17.2671 10.3936 17.6483 10.7748 18.108 10.7748Z" fill="#33CC79"/>
<path d="M13.4324 15.4503C13.4324 14.9906 13.0511 14.6094 12.5914 14.6094H6.95175C6.49205 14.6094 6.11084 14.9906 6.11084 15.4503C6.11084 15.91 6.49205 16.2912 6.95175 16.2912H12.5914C13.0624 16.2912 13.4324 15.91 13.4324 15.4503Z" fill="#33CC79"/>
</svg>
