<svg width="172" height="172" viewBox="0 0 172 172" fill="none" xmlns="http://www.w3.org/2000/svg">
<g clip-path="url(#clip0_707_1026)">
<path d="M84.8204 156.575C123.147 156.575 154.216 125.506 154.216 87.1794C154.216 48.8533 123.147 17.7838 84.8204 17.7838C46.4943 17.7838 15.4248 48.8533 15.4248 87.1794C15.4248 125.506 46.4943 156.575 84.8204 156.575Z" fill="url(#paint0_linear_707_1026)"/>
<path d="M132.446 18.661C132.446 18.661 93.6719 57.4372 93.6689 57.4402L82.4696 87.0917C82.2167 87.7993 82.4008 88.4957 82.8231 88.9817L142.875 149.013C159.348 133.54 169.641 111.563 169.641 87.1794C169.641 57.9893 154.895 33.9214 132.446 18.661Z" fill="url(#paint1_linear_707_1026)"/>
<path opacity="0.1" d="M84.8206 2.35876C37.9763 2.35876 0 40.3354 0 87.1794C0 134.023 37.9763 172 84.8206 172C131.665 172 169.641 134.024 169.641 87.1794C169.641 40.335 131.665 2.35876 84.8206 2.35876ZM84.8206 152.007C49.0183 152.007 19.9935 122.982 19.9935 87.1794C19.9935 51.3771 49.0183 22.3522 84.8206 22.3522C120.623 22.3522 149.648 51.3771 149.648 87.1794C149.648 122.982 120.623 152.007 84.8206 152.007Z" fill="url(#paint2_linear_707_1026)"/>
<path d="M84.8202 42.7312C60.2735 42.7312 40.3721 62.6326 40.3721 87.1794C40.3721 111.726 60.2735 131.628 84.8202 131.628C109.367 131.628 129.268 111.726 129.268 87.1794C129.268 62.6326 109.367 42.7312 84.8202 42.7312ZM84.8202 110.264C72.0693 110.264 61.7355 99.9306 61.7355 87.1797C61.7355 74.4288 72.0693 64.0949 84.8202 64.0949C97.5712 64.0949 107.905 74.4288 107.905 87.1797C107.905 99.9306 97.5712 110.264 84.8202 110.264Z" fill="url(#paint3_linear_707_1026)"/>
<path d="M84.821 95.976C89.6793 95.976 93.6177 92.0376 93.6177 87.1794C93.6177 82.3211 89.6793 78.3828 84.821 78.3828C79.9628 78.3828 76.0244 82.3211 76.0244 87.1794C76.0244 92.0376 79.9628 95.976 84.821 95.976Z" fill="url(#paint4_linear_707_1026)"/>
<path d="M156.145 41.2567C148.935 32.0999 140.65 24.2331 132.448 18.662C132.448 18.662 126.366 24.7444 119.019 32.0915C137.408 43.5355 149.648 63.927 149.648 87.1794C149.648 106.046 141.588 123.028 128.724 134.87L142.874 149.015C159.349 133.546 169.641 111.563 169.641 87.179C169.641 70.2563 164.686 54.4896 156.145 41.2567Z" fill="url(#paint5_linear_707_1026)"/>
<path d="M104.022 47.0879C98.1278 52.9817 93.6666 57.4385 93.6666 57.4385L90.8516 64.8949C100.678 67.5424 107.905 76.5147 107.905 87.1797C107.905 94.5228 104.478 101.062 99.1372 105.292L114.292 120.444C123.479 112.309 129.268 100.421 129.268 87.1797C129.268 69.5109 118.955 54.2464 104.022 47.0879Z" fill="url(#paint6_linear_707_1026)"/>
<path d="M85.7418 78.433L82.4704 87.0914C82.2191 87.7993 82.3992 88.4947 82.8222 88.9807L88.8459 95.0044C91.6818 93.5424 93.617 90.5894 93.617 87.1797C93.617 82.6305 90.1652 78.8897 85.7418 78.433Z" fill="url(#paint7_linear_707_1026)"/>
<path d="M93.6685 55.7641L84.8807 80.3466L83.7927 87.1797C83.2507 88.6954 91.6528 87.1187 91.6528 87.1187L116.235 78.3308C122.486 72.0805 99.9189 49.5138 93.6685 55.7641Z" fill="url(#paint8_linear_707_1026)"/>
<path d="M170.724 23.8456L116.235 78.3305C115.617 77.2597 114.678 76.3124 113.475 75.6409C111.832 74.7306 109.262 75.2291 107.483 75.7687C107.095 75.884 106.741 75.6824 106.597 75.3734C106.506 75.188 106.49 74.9616 106.589 74.7391C106.593 74.7391 106.593 74.735 106.593 74.735C106.692 74.5084 106.778 74.2777 106.852 74.0474C106.885 73.9361 106.918 73.8251 106.951 73.7138C106.955 73.7057 106.955 73.7013 106.955 73.6932C107.05 73.3351 107.116 72.9766 107.153 72.61C107.165 72.4906 107.173 72.3671 107.182 72.2474C107.192 72.0484 107.194 71.8495 107.187 71.6505C107.142 70.2579 106.687 68.8752 105.823 67.7006C105.612 67.4122 105.378 67.1404 105.118 66.881C104.859 66.6217 104.587 66.3869 104.299 66.1768C102.956 65.1883 101.342 64.7354 99.752 64.8177C99.6326 64.8258 99.5089 64.8342 99.3895 64.8464C99.0229 64.8835 98.6603 64.9492 98.3062 65.044C98.2981 65.044 98.2937 65.044 98.2856 65.048C98.1743 65.0811 98.063 65.1138 97.9521 65.1469C97.8327 65.184 97.7174 65.2251 97.602 65.2703C97.4907 65.3114 97.3794 65.3566 97.2685 65.4062C97.2644 65.4062 97.2644 65.4062 97.2604 65.4103C97.0378 65.5091 96.8115 65.4925 96.626 65.4022C96.3171 65.2581 96.1154 64.9037 96.2307 64.5165C96.7703 62.7372 97.2685 60.1713 96.3586 58.5282C95.6871 57.3215 94.7441 56.3823 93.6689 55.7648L148.154 1.27584C149.859 -0.425278 152.618 -0.425278 154.32 1.27584L157.536 4.49257L167.508 14.4639L170.724 17.6806C172.425 19.381 172.425 22.1408 170.724 23.8456Z" fill="url(#paint9_linear_707_1026)"/>
<path d="M167.507 14.4635L106.598 75.3735C106.507 75.188 106.49 74.9617 106.589 74.7391C106.594 74.7391 106.594 74.735 106.594 74.735C106.692 74.5084 107.121 72.9722 107.154 72.6097C107.17 72.4862 107.178 72.3668 107.183 72.2471C107.265 70.6573 106.812 69.0428 105.824 67.7002C105.613 67.4119 105.379 67.1401 105.119 66.8807C104.86 66.6214 104.588 66.3866 104.3 66.1765C102.957 65.188 101.343 64.7351 99.753 64.8174C99.6336 64.8214 99.5142 64.8299 99.3904 64.846C99.0279 64.8791 98.6657 64.9449 98.3072 65.0437C98.2991 65.0437 98.2947 65.0437 98.2866 65.0477C98.1753 65.0764 97.3804 65.3566 97.2694 65.4059C97.2654 65.4059 97.2654 65.4059 97.2613 65.4099C97.0387 65.5087 96.8124 65.4922 96.627 65.4018L157.536 4.49225L167.507 14.4635Z" fill="url(#paint10_linear_707_1026)"/>
<path d="M88.7935 83.2062C87.6081 82.0207 86.283 81.0693 84.8811 80.3466L82.4697 87.092C81.9277 88.6077 83.3917 90.0717 84.9074 89.5297L91.6528 87.1183C90.9304 85.7167 89.979 84.3916 88.7935 83.2062Z" fill="url(#paint11_linear_707_1026)"/>
</g>
<defs>
<linearGradient id="paint0_linear_707_1026" x1="57.0609" y1="59.4199" x2="150.541" y2="152.9" gradientUnits="userSpaceOnUse">
<stop stop-color="white"/>
<stop offset="1" stop-color="#C7E9FF"/>
</linearGradient>
<linearGradient id="paint1_linear_707_1026" x1="141.738" y1="92.8594" x2="118.001" y2="63.5371" gradientUnits="userSpaceOnUse">
<stop stop-color="#7ACBFF" stop-opacity="0"/>
<stop offset="1" stop-color="#2F73A0"/>
</linearGradient>
<linearGradient id="paint2_linear_707_1026" x1="50.8911" y1="53.2499" x2="165.149" y2="167.507" gradientUnits="userSpaceOnUse">
<stop stop-color="#FF4181"/>
<stop offset="1" stop-color="#843561"/>
</linearGradient>
<linearGradient id="paint3_linear_707_1026" x1="67.0405" y1="69.3996" x2="126.914" y2="129.273" gradientUnits="userSpaceOnUse">
<stop stop-color="#FF4181"/>
<stop offset="1" stop-color="#843561"/>
</linearGradient>
<linearGradient id="paint4_linear_707_1026" x1="81.3021" y1="83.6605" x2="93.1522" y2="95.5106" gradientUnits="userSpaceOnUse">
<stop stop-color="#FF4181"/>
<stop offset="1" stop-color="#843561"/>
</linearGradient>
<linearGradient id="paint5_linear_707_1026" x1="152.585" y1="97.6073" x2="121.447" y2="66.4696" gradientUnits="userSpaceOnUse">
<stop stop-color="#843561" stop-opacity="0"/>
<stop offset="1" stop-color="#3A2F4D"/>
</linearGradient>
<linearGradient id="paint6_linear_707_1026" x1="138.681" y1="111.51" x2="107.544" y2="80.3729" gradientUnits="userSpaceOnUse">
<stop stop-color="#843561" stop-opacity="0"/>
<stop offset="1" stop-color="#3A2F4D"/>
</linearGradient>
<linearGradient id="paint7_linear_707_1026" x1="126.077" y1="124.115" x2="94.939" y2="92.9778" gradientUnits="userSpaceOnUse">
<stop stop-color="#843561" stop-opacity="0"/>
<stop offset="1" stop-color="#3A2F4D"/>
</linearGradient>
<linearGradient id="paint8_linear_707_1026" x1="85.6772" y1="63.8223" x2="108.241" y2="86.3858" gradientUnits="userSpaceOnUse">
<stop stop-color="#FFE0EA"/>
<stop offset="1" stop-color="#FFC0D5"/>
</linearGradient>
<linearGradient id="paint9_linear_707_1026" x1="93.6689" y1="39.1654" x2="171.999" y2="39.1654" gradientUnits="userSpaceOnUse">
<stop stop-color="#FFCE47"/>
<stop offset="1" stop-color="#FF9356"/>
</linearGradient>
<linearGradient id="paint10_linear_707_1026" x1="141.43" y1="49.2966" x2="118.649" y2="26.5153" gradientUnits="userSpaceOnUse">
<stop stop-color="#FFCE47"/>
<stop offset="1" stop-color="#FF9356"/>
</linearGradient>
<linearGradient id="paint11_linear_707_1026" x1="85.2315" y1="85.4695" x2="90.9886" y2="91.2266" gradientUnits="userSpaceOnUse">
<stop stop-color="#2F73A0"/>
<stop offset="1" stop-color="#174461"/>
</linearGradient>
<clipPath id="clip0_707_1026">
<rect width="172" height="172" fill="white"/>
</clipPath>
</defs>
</svg>
