<svg width="168" height="168" viewBox="0 0 168 168" fill="none" xmlns="http://www.w3.org/2000/svg">
<circle opacity="0.1" cx="84" cy="84" r="84" fill="#5BB1EB"/>
<path d="M78.9882 51.762C74.8177 56.2013 74.8177 63.2244 78.9882 67.6635C81.7095 70.5615 85.5374 71.7438 89.1639 71.21C90.7379 70.978 92.1419 72.2237 92.1419 73.8143V82.3151C92.1419 85.5332 89.5335 88.1416 86.3153 88.1416H77.8146C76.224 88.1416 74.9783 86.7379 75.2102 85.1636C75.7438 81.5371 74.5618 77.7095 71.6638 74.9879C67.2247 70.8174 60.2013 70.8174 55.7622 74.9879C52.8642 77.7092 51.6822 81.5368 52.2158 85.1636C52.4477 86.7376 51.202 88.1416 49.6114 88.1416H41.1099C37.8918 88.1416 35.2834 85.5332 35.2834 82.3151V73.8143C35.2834 72.2237 33.8776 70.978 32.3033 71.21C28.6788 71.7435 24.8492 70.5615 22.1278 67.6635C17.9574 63.2242 17.9574 56.2011 22.1278 51.762C24.8492 48.864 28.6791 47.6817 32.3033 48.2155C33.8776 48.4475 35.2834 47.2018 35.2834 45.6112V37.1102C35.2834 33.892 37.8918 31.2836 41.1099 31.2836H49.6107C51.2012 31.2836 52.447 29.8778 52.215 28.3035C51.6815 24.6791 52.8635 20.8494 55.7615 18.1278C60.2006 13.9574 67.2239 13.9574 71.663 18.1278C74.561 20.8494 75.743 24.6791 75.2095 28.3035C74.9775 29.8776 76.2232 31.2836 77.8138 31.2836H86.3146C89.5327 31.2836 92.1411 33.892 92.1411 37.1102V45.6109C92.1411 47.2015 90.7374 48.4472 89.1631 48.2152C85.5374 47.682 81.7095 48.864 78.9882 51.762Z" fill="url(#paint0_linear_5001_631)"/>
<path d="M22.1269 67.6635C24.8482 70.5615 28.6779 71.7435 32.3026 71.21C33.8769 70.978 35.2826 72.2237 35.2826 73.8143V82.3151C35.2826 85.5332 37.8911 88.1416 41.1092 88.1416H49.6099C51.2005 88.1416 52.4462 86.7379 52.2143 85.1636C51.6808 81.5371 52.8628 77.7095 55.7607 74.9879C60.1999 70.8174 67.2232 70.8174 71.6623 74.9879C74.5603 77.7092 75.7423 81.5368 75.2088 85.1636C74.9768 86.7376 76.2225 88.1416 77.8131 88.1416H86.3139C89.532 88.1416 92.1404 85.5332 92.1404 82.3151V73.8143C92.1404 72.2237 90.7367 70.978 89.1624 71.21C85.5359 71.7435 81.7083 70.5615 78.9867 67.6635C77.6982 66.2919 76.809 64.6735 76.3168 62.9611H19.457C19.9495 64.6735 20.8386 66.2922 22.1269 67.6635Z" fill="url(#paint1_linear_5001_631)"/>
<path d="M78.9882 108.616C74.8177 113.056 74.8177 120.079 78.9882 124.518C81.7095 127.416 85.5374 128.598 89.1639 128.064C90.7379 127.833 92.1419 129.078 92.1419 130.669V139.17C92.1419 142.388 89.5335 144.996 86.3153 144.996H77.8146C76.224 144.996 74.9783 143.592 75.2102 142.018C75.7438 138.392 74.5618 134.564 71.6638 131.842C67.2247 127.672 60.2013 127.672 55.7622 131.842C52.8642 134.564 51.6822 138.391 52.2158 142.018C52.4477 143.592 51.202 144.996 49.6114 144.996H41.1099C37.8918 144.996 35.2834 142.388 35.2834 139.17V130.669C35.2834 129.078 33.8776 127.833 32.3033 128.064C28.6788 128.598 24.8492 127.416 22.1278 124.518C17.9574 120.079 17.9574 113.056 22.1278 108.616C24.8492 105.718 28.6791 104.536 32.3033 105.07C33.8776 105.302 35.2834 104.056 35.2834 102.466V93.9649C35.2834 90.7468 37.8918 88.1383 41.1099 88.1383H49.6107C51.2012 88.1383 52.447 86.7326 52.215 85.1583C51.6815 81.5338 52.8635 77.7042 55.7615 74.9826C60.2006 70.8121 67.2239 70.8121 71.663 74.9826C74.561 77.7042 75.743 81.5338 75.2095 85.1583C74.9775 86.7323 76.2232 88.1383 77.8138 88.1383H86.3146C89.5327 88.1383 92.1411 90.7468 92.1411 93.9649V102.466C92.1411 104.056 90.7374 105.302 89.1631 105.07C85.5374 104.536 81.7095 105.718 78.9882 108.616Z" fill="url(#paint2_linear_5001_631)"/>
<path d="M135.847 108.616C131.676 113.056 131.676 120.079 135.847 124.518C138.568 127.416 142.396 128.598 146.022 128.064C147.596 127.833 149 129.078 149 130.669V139.17C149 142.388 146.392 144.996 143.174 144.996H134.673C133.083 144.996 131.837 143.592 132.069 142.018C132.602 138.392 131.42 134.564 128.522 131.842C124.083 127.672 117.06 127.672 112.621 131.842C109.723 134.564 108.541 138.391 109.074 142.018C109.306 143.592 108.061 144.996 106.47 144.996H97.9693C94.7511 144.996 92.1427 142.388 92.1427 139.17V130.669C92.1427 129.078 90.7369 127.833 89.1627 128.064C85.5382 128.598 81.7086 127.416 78.9872 124.518C74.8168 120.079 74.8168 113.056 78.9872 108.616C81.7086 105.718 85.5385 104.536 89.1627 105.07C90.7369 105.302 92.1427 104.056 92.1427 102.466V93.9649C92.1427 90.7468 94.7511 88.1383 97.9693 88.1383H106.47C108.061 88.1383 109.306 86.7326 109.074 85.1583C108.541 81.5338 109.723 77.7042 112.621 74.9826C117.06 70.8121 124.083 70.8121 128.522 74.9826C131.42 77.7042 132.602 81.5338 132.069 85.1583C131.837 86.7323 133.083 88.1383 134.673 88.1383H143.174C146.392 88.1383 149 90.7468 149 93.9649V102.466C149 104.056 147.597 105.302 146.022 105.07C142.396 104.536 138.568 105.718 135.847 108.616Z" fill="url(#paint3_linear_5001_631)"/>
<path d="M89.1655 105.07C90.7395 105.302 92.1435 104.056 92.1435 102.465V93.9646C92.1435 90.7465 89.5351 88.1381 86.317 88.1381H77.8162C76.2256 88.1381 74.9799 86.7323 75.2119 85.158C75.7454 81.5335 74.5634 77.7039 71.6654 74.9823C69.4595 72.9102 66.6158 71.8687 63.7678 71.8557C62.8471 74.3463 62.3457 77.0962 62.3457 80.0416C62.3457 86.8365 64.1851 92.9348 68.8941 97.119L79.7015 107.927C82.3558 105.536 85.8436 104.581 89.1655 105.07Z" fill="url(#paint4_linear_5001_631)"/>
<path d="M134.673 144.996H143.173C146.392 144.996 149 142.388 149 139.17V130.669C149 129.078 147.596 127.833 146.022 128.065C142.396 128.598 138.568 127.416 135.846 124.518C131.676 120.079 131.676 113.056 135.846 108.617C137.449 106.91 139.437 105.803 141.541 105.286L111.939 75.684C109.543 78.3401 108.585 81.8341 109.074 85.158C109.306 86.732 108.06 88.138 106.47 88.138H97.9688C94.7507 88.138 92.1423 90.7465 92.1423 93.9646V102.465C92.1423 104.056 90.7365 105.302 89.1622 105.07C85.8429 104.581 82.3538 105.536 79.6992 107.926L109.294 137.521C109.812 135.423 110.918 133.442 112.62 131.843C117.059 127.672 124.083 127.672 128.522 131.843C131.42 134.564 132.602 138.392 132.068 142.018C131.836 143.593 133.082 144.996 134.673 144.996Z" fill="url(#paint5_linear_5001_631)"/>
<path d="M83.9969 102.841C96.6125 102.841 106.839 92.6138 106.839 79.9982C106.839 67.3826 96.6125 57.1557 83.9969 57.1557C71.3813 57.1557 61.1543 67.3826 61.1543 79.9982C61.1543 92.6138 71.3813 102.841 83.9969 102.841Z" fill="url(#paint6_linear_5001_631)"/>
<path d="M80.2699 90.8499C78.288 90.8499 76.4247 90.0781 75.0235 88.6769L68.7141 82.3676C67.3948 81.0484 67.3948 78.9093 68.7141 77.5899C70.0333 76.2705 72.1724 76.2705 73.4918 77.5899L79.8011 83.8993C79.9617 84.0598 80.1447 84.0935 80.2699 84.0935C80.395 84.0935 80.5781 84.0598 80.7386 83.8993L94.5019 70.1363C95.8212 68.8169 97.9601 68.8169 99.2795 70.1363C100.599 71.4554 100.599 73.5946 99.2795 74.914L85.5165 88.6769C84.1148 90.0781 82.2518 90.8499 80.2699 90.8499Z" fill="white"/>
<path d="M22.1269 124.518C24.8482 127.416 28.6779 128.598 32.3026 128.064C33.8769 127.832 35.2826 129.078 35.2826 130.669V139.17C35.2826 142.388 37.8911 144.996 41.1092 144.996H49.6099C51.2005 144.996 52.4462 143.592 52.2143 142.018C51.6808 138.392 52.8628 134.564 55.7607 131.842C60.1999 127.672 67.2232 127.672 71.6623 131.842C74.5603 134.564 75.7423 138.391 75.2088 142.018C74.9768 143.592 76.2225 144.996 77.8131 144.996H86.3139C89.532 144.996 92.1404 142.388 92.1404 139.17V130.669C92.1404 129.078 90.7367 127.832 89.1624 128.064C85.5359 128.598 81.7083 127.416 78.9867 124.518C77.6982 123.146 76.809 121.528 76.3168 119.816H19.457C19.9495 121.528 20.8386 123.146 22.1269 124.518Z" fill="url(#paint7_linear_5001_631)"/>
<path d="M78.5292 124.518C81.2506 127.416 85.0802 128.598 88.7049 128.064C90.2792 127.832 91.685 129.078 91.685 130.669V139.17C91.685 142.388 94.2934 144.996 97.5115 144.996H106.012C107.603 144.996 108.849 143.592 108.617 142.018C108.083 138.392 109.265 134.564 112.163 131.842C116.602 127.672 123.626 127.672 128.065 131.842C130.963 134.564 132.145 138.391 131.611 142.018C131.379 143.592 132.625 144.996 134.215 144.996H142.716C145.934 144.996 148.543 142.388 148.543 139.17V130.669C148.543 129.078 147.139 127.832 145.565 128.064C141.938 128.598 138.111 127.416 135.389 124.518C134.1 123.146 133.211 121.528 132.719 119.816H75.8594C76.3516 121.528 77.2407 123.146 78.5292 124.518Z" fill="url(#paint8_linear_5001_631)"/>
<path d="M120.408 43.5908C118.51 41.6928 118.51 38.6154 120.408 36.7171L129.725 27.3997C131.623 25.5017 134.701 25.5017 136.599 27.3997C138.497 29.2977 138.497 32.3751 136.599 34.2734L127.282 43.5908C125.383 45.4888 122.306 45.4888 120.408 43.5908Z" fill="url(#paint9_linear_5001_631)"/>
<path d="M100.937 41.5567C98.2523 41.5567 96.0762 39.3806 96.0762 36.6962V23.5193C96.0762 20.8349 98.2523 18.6588 100.937 18.6588C103.621 18.6588 105.797 20.8349 105.797 23.5193V36.6959C105.797 39.3806 103.621 41.5567 100.937 41.5567Z" fill="url(#paint10_linear_5001_631)"/>
<path d="M122.443 63.0635C122.443 60.3792 124.619 58.2031 127.304 58.2031H140.481C143.165 58.2031 145.341 60.3792 145.341 63.0635C145.341 65.7479 143.165 67.924 140.481 67.924H127.304C124.619 67.924 122.443 65.7479 122.443 63.0635Z" fill="url(#paint11_linear_5001_631)"/>
<defs>
<linearGradient id="paint0_linear_5001_631" x1="42.6319" y1="38.6322" x2="76.665" y2="72.6652" gradientUnits="userSpaceOnUse">
<stop stop-color="#7ACBFF"/>
<stop offset="1" stop-color="#45A2E0"/>
</linearGradient>
<linearGradient id="paint1_linear_5001_631" x1="55.799" y1="68.7828" x2="55.799" y2="88.7223" gradientUnits="userSpaceOnUse">
<stop stop-color="#2F73A0" stop-opacity="0"/>
<stop offset="1" stop-color="#2F73A0"/>
</linearGradient>
<linearGradient id="paint2_linear_5001_631" x1="42.6319" y1="95.4864" x2="76.665" y2="129.52" gradientUnits="userSpaceOnUse">
<stop stop-color="#FFCE47"/>
<stop offset="1" stop-color="#FF9356"/>
</linearGradient>
<linearGradient id="paint3_linear_5001_631" x1="88.7533" y1="84.7494" x2="126.846" y2="122.843" gradientUnits="userSpaceOnUse">
<stop stop-color="#FF755C"/>
<stop offset="1" stop-color="#FF4181"/>
</linearGradient>
<linearGradient id="paint4_linear_5001_631" x1="110.256" y1="124.095" x2="89.8058" y2="103.644" gradientUnits="userSpaceOnUse">
<stop stop-color="#FF9356" stop-opacity="0"/>
<stop offset="1" stop-color="#FF755C"/>
</linearGradient>
<linearGradient id="paint5_linear_5001_631" x1="114.721" y1="110.707" x2="82.2284" y2="78.2142" gradientUnits="userSpaceOnUse">
<stop stop-color="#843561" stop-opacity="0"/>
<stop offset="1" stop-color="#3A2F4D"/>
</linearGradient>
<linearGradient id="paint6_linear_5001_631" x1="74.2035" y1="70.2049" x2="95.9268" y2="91.9282" gradientUnits="userSpaceOnUse">
<stop stop-color="#E4E08E"/>
<stop offset="1" stop-color="#6FA953"/>
</linearGradient>
<linearGradient id="paint7_linear_5001_631" x1="55.799" y1="126.131" x2="55.799" y2="141.806" gradientUnits="userSpaceOnUse">
<stop stop-color="#FF9356" stop-opacity="0"/>
<stop offset="1" stop-color="#FF755C"/>
</linearGradient>
<linearGradient id="paint8_linear_5001_631" x1="112.201" y1="131.866" x2="112.201" y2="151.424" gradientUnits="userSpaceOnUse">
<stop stop-color="#843561" stop-opacity="0"/>
<stop offset="1" stop-color="#3A2F4D"/>
</linearGradient>
<linearGradient id="paint9_linear_5001_631" x1="129.003" y1="36.1133" x2="125.622" y2="32.7325" gradientUnits="userSpaceOnUse">
<stop stop-color="#6FA953"/>
<stop offset="1" stop-color="#43765A"/>
</linearGradient>
<linearGradient id="paint10_linear_5001_631" x1="101.791" y1="30.108" x2="97.0089" y2="30.108" gradientUnits="userSpaceOnUse">
<stop stop-color="#FFCE47"/>
<stop offset="1" stop-color="#FF9356"/>
</linearGradient>
<linearGradient id="paint11_linear_5001_631" x1="133.892" y1="63.9175" x2="133.892" y2="59.1355" gradientUnits="userSpaceOnUse">
<stop stop-color="#7ACBFF"/>
<stop offset="1" stop-color="#45A2E0"/>
</linearGradient>
</defs>
</svg>
