<svg width="168" height="168" viewBox="0 0 168 168" fill="none" xmlns="http://www.w3.org/2000/svg">
<circle opacity="0.1" cx="84" cy="84" r="84" fill="#FF318E"/>
<g clip-path="url(#clip0_706_491)">
<path d="M153.486 89.3963V127.035C153.486 127.444 153.267 127.821 152.914 128.026L120.316 146.847C120.139 146.948 119.941 147 119.743 147C119.546 147 119.348 146.948 119.17 146.847L86.5739 128.027C86.2201 127.823 86.001 127.444 86.001 127.035V89.3963C86.001 89.1915 86.0554 88.9952 86.1542 88.8233C86.2531 88.6515 86.3949 88.5067 86.5726 88.405L119.17 69.5844C119.526 69.3796 119.961 69.3796 120.316 69.5844L152.914 88.405C153.09 88.508 153.234 88.6528 153.332 88.8233C153.431 88.9952 153.486 89.1915 153.486 89.3963Z" fill="#C30A5B"/>
<path d="M119.743 69.4311C119.941 69.4311 120.138 69.4827 120.316 69.5844L152.914 88.405C153.266 88.6098 153.486 88.9864 153.486 89.3963V127.035C153.486 127.444 153.266 127.821 152.914 128.026L120.316 146.847C120.138 146.948 119.941 147 119.743 147" fill="#FF318E"/>
<path d="M153.332 88.8233L120.316 107.885C119.961 108.089 119.526 108.089 119.17 107.885L86.1543 88.8233C86.2531 88.6515 86.395 88.5067 86.5727 88.405L119.17 69.5844C119.526 69.3796 119.961 69.3796 120.316 69.5844L152.914 88.405C153.09 88.508 153.234 88.6528 153.332 88.8233Z" fill="#FF73AF"/>
<path d="M85.9993 89.3963V127.035C85.9993 127.444 85.7802 127.821 85.4277 128.026L52.8299 146.847C52.6522 146.948 52.4546 147 52.257 147C52.0594 147 51.8617 146.948 51.684 146.847L19.0876 128.027C18.7338 127.823 18.5146 127.444 18.5146 127.035V89.3963C18.5146 89.1915 18.5691 88.9952 18.6679 88.8233C18.7667 88.6515 18.9086 88.5067 19.0863 88.405L51.684 69.5844C52.0392 69.3796 52.4748 69.3796 52.8299 69.5844L85.4277 88.405C85.6038 88.508 85.7473 88.6528 85.8461 88.8233C85.9449 88.9952 85.9993 89.1915 85.9993 89.3963Z" fill="#0064BF"/>
<path d="M85.9992 89.3963V127.035C85.9992 127.444 85.78 127.821 85.4276 128.026L52.8298 146.847C52.6521 146.948 52.4545 147 52.2568 147V69.4311C52.4545 69.4311 52.6521 69.4827 52.8298 69.5844L85.4276 88.405C85.78 88.6098 85.9992 88.9867 85.9992 89.3963Z" fill="#0085E0"/>
<path d="M85.8461 88.8233L52.83 107.885C52.4749 108.089 52.0392 108.089 51.6841 107.885L18.668 88.8233C18.7668 88.6515 18.9086 88.5067 19.0863 88.405L51.6841 69.5844C52.0392 69.3796 52.4749 69.3796 52.83 69.5844L85.4278 88.405C85.6041 88.508 85.7473 88.6528 85.8461 88.8233Z" fill="#60DEFC"/>
<path d="M119.743 30.9657V68.6042C119.743 69.0138 119.523 69.3908 119.171 69.5956L86.5731 88.4162C86.3954 88.5179 86.1978 88.5694 86.0002 88.5694C85.8025 88.5694 85.6049 88.5179 85.4272 88.4162L52.8308 69.5969C52.477 69.3921 52.2578 69.0138 52.2578 68.6042V30.9657C52.2578 30.7609 52.3123 30.5646 52.4111 30.3928C52.5099 30.2209 52.6517 30.0761 52.8294 29.9744L85.4272 11.1535C85.7823 10.9487 86.218 10.9487 86.5731 11.1535L119.171 29.9741C119.347 30.0772 119.49 30.222 119.589 30.3925C119.688 30.5646 119.743 30.7606 119.743 30.9657Z" fill="#08B2A5"/>
<path d="M119.742 30.9657V68.6042C119.742 69.0138 119.523 69.3908 119.171 69.5956L86.573 88.4162C86.3953 88.5179 86.1976 88.5694 86 88.5694V11.0003C86.1976 11.0003 86.3953 11.0518 86.573 11.1535L119.171 29.9741C119.523 30.1792 119.742 30.5559 119.742 30.9657Z" fill="#47DDD9"/>
<path d="M119.589 30.3925L86.5732 49.4537C86.218 49.6585 85.7824 49.6585 85.4273 49.4537L52.4111 30.3925C52.5099 30.2206 52.6518 30.0759 52.8295 29.9741L85.4273 11.1535C85.7824 10.9487 86.218 10.9487 86.5732 11.1535L119.171 29.9741C119.347 30.0775 119.49 30.2222 119.589 30.3925Z" fill="#CCFEFB"/>
<path d="M113.579 67.2405C112.445 67.2405 111.526 66.3217 111.526 65.1883V65.0342C111.526 63.9006 112.445 62.982 113.579 62.982C114.712 62.982 115.631 63.9008 115.631 65.0342V65.1883C115.631 66.322 114.712 67.2405 113.579 67.2405Z" fill="#CCFEFB"/>
<path d="M113.579 61.282C112.445 61.282 111.526 60.3632 111.526 59.2298V59.0755C111.526 57.9418 112.445 57.0233 113.579 57.0233C114.712 57.0233 115.631 57.9421 115.631 59.0755V59.2298C115.631 60.3632 114.712 61.282 113.579 61.282Z" fill="#CCFEFB"/>
<path d="M113.579 55.323C112.445 55.323 111.526 54.4042 111.526 53.2708V53.1167C111.526 51.983 112.445 51.0645 113.579 51.0645C114.712 51.0645 115.631 51.9833 115.631 53.1167V53.2708C115.631 54.4042 114.712 55.323 113.579 55.323Z" fill="#CCFEFB"/>
</g>
<defs>
<clipPath id="clip0_706_491">
<rect width="136" height="136" fill="white" transform="translate(18 11)"/>
</clipPath>
</defs>
</svg>
