<svg width="32" height="24" viewBox="0 0 32 24" fill="none" xmlns="http://www.w3.org/2000/svg">
<path d="M27.4713 0.293701H4.52875C2.03187 0.293701 0 2.32558 0 4.82308V19.1768C0 21.6743 2.03187 23.7062 4.52875 23.7062H27.4713C29.9681 23.7062 32 21.6743 32 19.1768V4.82308C32 2.32558 29.9681 0.293701 27.4713 0.293701ZM11.6131 7.49933L6.84875 12.2637L11.0856 16.5006C11.4519 16.8668 11.4519 17.4606 11.0856 17.8262C10.72 18.1925 10.1263 18.1925 9.76 17.8262L4.86 12.9262C4.49375 12.56 4.49375 11.9668 4.86 11.6006L10.2869 6.1737C10.6531 5.80745 11.2469 5.80745 11.6131 6.1737C11.9788 6.53933 11.9788 7.13308 11.6131 7.49933ZM19.3463 5.2937L14.3888 19.3306C14.2163 19.8193 13.6806 20.075 13.1925 19.9025C12.7044 19.73 12.4481 19.1943 12.6206 18.7062L17.5781 4.66933C17.7506 4.1812 18.2856 3.92495 18.7744 4.09745C19.2625 4.26995 19.5188 4.80558 19.3463 5.2937ZM27.14 12.3993L21.7131 17.8262C21.3469 18.1925 20.7531 18.1925 20.3869 17.8262C20.0212 17.4606 20.0212 16.8668 20.3869 16.5006L25.1513 11.7362L20.9144 7.49933C20.5481 7.13308 20.5481 6.53933 20.9144 6.1737C21.28 5.80745 21.8738 5.80745 22.24 6.1737L27.14 11.0737C27.5062 11.44 27.5062 12.0331 27.14 12.3993Z" fill="white"/>
</svg>
