<svg width="36" height="36" viewBox="0 0 36 36" fill="none" xmlns="http://www.w3.org/2000/svg">
<path d="M1.0574 22.7392L1.3939 22.8097C1.50788 23.1734 1.64903 23.5265 1.83365 23.8737L1.63816 24.156C1.37217 24.574 1.43737 25.1333 1.77388 25.4861L2.6262 26.3274C2.979 26.6914 3.5273 26.7454 3.96161 26.4687L4.25477 26.2678C4.59127 26.4523 4.95508 26.5936 5.31875 26.7075L5.38939 27.055C5.48707 27.5436 5.89964 27.8746 6.3936 27.8855C6.3936 27.9473 6.3936 31.4329 6.3936 31.3762C6.3936 33.5799 8.18505 35.3715 10.3891 35.3715H23.4503C25.6542 35.3715 27.4456 33.5799 27.4456 31.3762C27.4456 29.7484 27.4456 26.5093 27.4456 24.7532H27.8419C28.4879 24.7532 29.0579 24.2973 29.1719 23.6622L29.2642 23.2169C29.731 23.0812 30.1816 22.8858 30.6159 22.647L30.9905 22.8967C31.5388 23.2603 32.2553 23.1843 32.7004 22.7284L33.7698 21.6588C34.2476 21.2029 34.3236 20.4756 33.949 19.9271L33.6993 19.5526C33.9382 19.1184 34.1228 18.6625 34.2694 18.1737L34.6765 18.0923C35.3279 17.9675 35.7947 17.4138 35.7947 16.7731V15.237C35.7947 14.5911 35.3279 14.0209 34.6765 13.8961L34.2476 13.8038C34.1119 13.3479 33.9164 12.8809 33.6776 12.452L33.9164 12.0883C34.2802 11.5401 34.2259 10.8128 33.759 10.3675L32.6733 9.28708C32.2228 8.83116 31.5062 8.74978 30.9579 9.11346L30.5725 9.36872C30.1382 9.12989 29.6714 8.93427 29.2045 8.79856L29.1231 8.38611C29.009 7.75101 28.4553 7.28423 27.7931 7.28423H27.4456C27.4456 7.21717 27.4456 4.57445 27.4456 4.62958C27.4456 2.39798 25.6227 0.628662 23.4503 0.628662H10.3891C8.20573 0.628662 6.3936 2.41018 6.3936 4.62958V14.2815C5.87248 14.287 5.4436 14.6398 5.35679 15.1284L5.29158 15.465C4.92248 15.5843 4.5588 15.7364 4.2113 15.9209L3.93444 15.7364C3.51113 15.4486 2.95183 15.5029 2.60446 15.8557L1.76301 16.7026C1.41021 17.0557 1.35043 17.62 1.62186 18.0489L1.81735 18.3312C1.63816 18.6787 1.49701 19.0315 1.38304 19.406L1.04653 19.4656C0.541581 19.5743 0.205078 19.9979 0.205078 20.4973V21.7023C0.205078 22.2072 0.56875 22.6414 1.0574 22.7392ZM16.9195 33.5312C16.3442 33.5312 15.8719 33.0644 15.8719 32.4836C15.8719 31.9026 16.3442 31.4358 16.9195 31.4358C17.5004 31.4358 17.9673 31.9026 17.9673 32.4836C17.9673 33.0644 17.5004 33.5312 16.9195 33.5312ZM31.8265 14.1566C33.1655 17.7143 30.6136 21.2495 26.9028 21.1377C24.6908 21.0067 23.1075 19.7572 22.4622 18.0436C21.1599 14.5842 23.5292 11.2563 26.9028 11.0625C29.2428 10.9899 31.1112 12.2577 31.8265 14.1566ZM15.9425 2.43642H17.8968C18.1953 2.43642 18.4397 2.68055 18.4397 2.97928C18.4397 3.27774 18.1953 3.52213 17.8968 3.52213H15.9425C15.6439 3.52213 15.3996 3.27774 15.3996 2.97928C15.3996 2.68055 15.6439 2.43642 15.9425 2.43642ZM7.47931 5.32432H26.3599V7.28423H26.2677C25.6 7.28423 25.0408 7.74014 24.9267 8.37524L24.8453 8.80942C24.3677 8.95601 23.9007 9.15136 23.4556 9.39045L23.1028 9.15136C22.5599 8.78769 21.8433 8.85289 21.3981 9.30881L20.318 10.3892C19.8619 10.8451 19.7804 11.5727 20.1333 12.1209L20.383 12.4846C20.1551 12.9299 19.9759 13.3858 19.8293 13.8635L19.395 13.9395C18.749 14.0752 18.3147 14.6234 18.3147 15.2585V16.8113C18.3147 17.4572 18.7816 18.0163 19.4059 18.1414L19.8402 18.2336C19.9868 18.7004 20.1714 19.151 20.4102 19.5961L20.1551 19.9597C19.8184 20.4973 19.8945 21.2138 20.3288 21.6699L21.4198 22.7501C21.8759 23.2169 22.5816 23.2821 23.1408 22.9293L23.5153 22.6687C23.9496 22.9075 24.4164 23.092 24.8779 23.2386L24.9702 23.6839C25.095 24.319 25.6433 24.7532 26.3056 24.7532H26.3599V30.0461H7.47931V27.8911H7.62589C8.13071 27.8911 8.57589 27.5327 8.6627 27.0386L8.73334 26.6914C9.09702 26.588 9.44995 26.4361 9.78645 26.2514L10.0796 26.447C10.5085 26.7293 11.0677 26.6641 11.4096 26.3113L12.2456 25.4752C12.6147 25.1224 12.6799 24.5578 12.3868 24.129L12.1913 23.8358C12.3759 23.4992 12.517 23.1464 12.6365 22.7663L12.9514 22.7013C13.4616 22.6035 13.8254 22.1693 13.8254 21.6752V20.4756C13.8254 19.9706 13.4616 19.5309 12.9514 19.4333L12.6147 19.3628C12.5116 19.0044 12.3596 18.6408 12.1751 18.3041L12.3596 18.0218C12.6419 17.5929 12.5984 17.0284 12.2347 16.6809L11.3933 15.8395C11.0405 15.4867 10.4813 15.4215 10.0524 15.7091L9.75398 15.9047C9.41735 15.7147 9.05368 15.5628 8.68987 15.4594L8.6248 15.1392C8.53786 14.6451 8.10368 14.2815 7.58786 14.2815H7.47931V5.32432ZM6.3936 17.924C7.841 17.6083 9.54842 18.3129 10.1394 19.8784C11.0461 22.2905 9.19761 24.5714 6.93645 24.4383C5.66599 24.4007 4.48922 23.6442 4.02668 22.419C3.23413 20.3181 4.51533 18.3259 6.3936 17.924Z" fill="white"/>
</svg>
