<svg width="35" height="35" viewBox="0 0 35 35" fill="none" xmlns="http://www.w3.org/2000/svg">
<path d="M34.8901 15.5569C34.8348 15.065 34.261 14.6949 33.7648 14.6949C32.1613 14.6949 30.7382 13.7537 30.1414 12.297C29.5321 10.8053 29.9252 9.06604 31.1199 7.97002C31.4962 7.62598 31.5421 7.04989 31.2266 6.64999C30.4056 5.60771 29.4729 4.66608 28.4543 3.85009C28.0557 3.53041 27.4701 3.57491 27.1243 3.95771C26.0812 5.11291 24.2075 5.54217 22.7596 4.93808C21.2534 4.30433 20.3026 2.77753 20.396 1.13873C20.4268 0.623645 20.0502 0.176067 19.5369 0.116278C18.2296 -0.035084 16.9108 -0.0394735 15.5997 0.105986C15.0929 0.16199 14.7166 0.598973 14.7334 1.10755C14.7902 2.73031 13.8287 4.23016 12.337 4.84121C10.9065 5.42562 9.04582 4.99953 8.0049 3.85448C7.66086 3.47728 7.08553 3.43097 6.68427 3.74383C5.63563 4.56679 4.68189 5.50902 3.85333 6.54283C3.53048 6.94469 3.57816 7.52714 3.95762 7.87239C5.17594 8.97568 5.56872 10.73 4.93618 12.2391C4.33224 13.6778 2.83845 14.6045 1.1285 14.6045C0.57361 14.5867 0.178705 14.9595 0.117404 15.4641C-0.0363807 16.7784 -0.0380457 18.1183 0.109987 19.4433C0.165234 19.9373 0.756002 20.3042 1.25762 20.3042C2.78184 20.2655 4.2443 21.2085 4.85868 22.702C5.47004 24.1937 5.07649 25.9322 3.87982 27.0297C3.5055 27.3738 3.45767 27.9485 3.77372 28.348C4.58638 29.3837 5.51998 30.326 6.54168 31.1489C6.94279 31.4719 7.52614 31.4267 7.87382 31.0434C8.92095 29.8855 10.7944 29.457 12.2364 30.0623C13.747 30.6944 14.6972 32.221 14.6045 33.8603C14.574 34.3754 14.9515 34.8243 15.463 34.8827C16.132 34.961 16.8045 34.9997 17.4791 34.9997C18.1194 34.9997 18.7598 34.9648 19.4002 34.8935C19.9076 34.8375 20.2833 34.4 20.2662 33.8913C20.2076 32.2693 21.1712 30.7693 22.661 30.1595C24.1011 29.5713 25.9535 30.0017 26.995 31.1451C27.3409 31.5216 27.9127 31.5673 28.3156 31.2556C29.3625 30.4348 30.3144 29.493 31.1466 28.4565C31.4697 28.0554 31.4239 27.4722 31.0423 27.1263C29.8243 26.0238 29.4294 24.2687 30.0619 22.7612C30.6564 21.3418 32.0947 20.3889 33.6416 20.3889L33.8581 20.3946C34.3603 20.4353 34.8218 20.0486 34.8825 19.5362C35.037 18.2207 35.0387 16.8824 34.8901 15.5569ZM17.5002 27.5887C11.9281 27.5887 7.41126 23.0719 7.41126 17.5C7.41126 11.928 11.9282 7.41119 17.5002 7.41119C23.0721 7.41119 27.5891 11.928 27.5891 17.5C27.5891 19.3912 27.0676 21.1602 26.162 22.6729L21.7444 18.2551C22.0642 17.501 22.2331 16.6835 22.233 15.8398C22.233 14.1877 21.5895 12.6346 20.4212 11.4665C19.2531 10.2984 17.7 9.65514 16.0482 9.65514C15.4969 9.65514 14.9482 9.7284 14.4174 9.87295C14.1849 9.93637 13.9948 10.128 13.9329 10.3609C13.8696 10.5992 13.9409 10.8433 14.1271 11.0297C14.1271 11.0297 16.308 13.2274 17.0378 13.957C17.1142 14.0335 17.114 14.2158 17.1033 14.2815L17.0965 14.3295C17.0229 15.1317 16.8811 16.0947 16.7641 16.4648C16.7484 16.4804 16.7335 16.4935 16.7175 16.5096C16.7007 16.5264 16.6852 16.5426 16.669 16.5592C16.2941 16.6796 15.3163 16.8231 14.5014 16.896L14.5015 16.8916L14.4649 16.9009C14.4584 16.9016 14.4463 16.9025 14.4302 16.9025C14.3421 16.9025 14.2126 16.8779 14.0948 16.7602C13.3353 16.0007 11.2398 13.9202 11.2398 13.9202C11.0518 13.7328 10.859 13.6935 10.7305 13.6935C10.4309 13.6935 10.1627 13.9099 10.0783 14.2204C9.50142 16.355 10.1129 18.6512 11.6745 20.213C12.8429 21.3812 14.3962 22.0245 16.0483 22.0245C16.892 22.0245 17.7095 21.8557 18.4634 21.5359L22.9291 26.0015C21.3613 27.0048 19.4995 27.5887 17.5002 27.5887Z" fill="white"/>
</svg>
