<svg width="102" height="70" viewBox="0 0 102 70" fill="none" xmlns="http://www.w3.org/2000/svg">
<path d="M58.3694 43.159L72.9748 28.7807C69.941 16.603 57.8917 9.26272 46.0618 12.3858C40.7346 13.7922 36.1076 17.1918 33.084 21.9209C33.31 21.915 58.3694 43.159 58.3694 43.159Z" fill="#0364B8"/>
<path d="M42.6028 24.6276L42.6022 24.6301C39.8114 22.8507 36.5928 21.9102 33.3101 21.9148C33.2342 21.9148 33.1597 21.9198 33.0841 21.9207C23.3193 22.0452 15.5016 30.2948 15.6225 40.3465C15.6663 43.9927 16.773 47.5413 18.7992 50.5324L40.6805 47.7112L57.4565 33.7863L42.6028 24.6276Z" fill="#0078D4"/>
<path d="M72.9745 28.7808C72.6534 28.7587 72.3308 28.7434 72.0043 28.7434C70.0449 28.7414 68.1059 29.1534 66.3074 29.9539L66.307 29.9523L57.4561 33.7865L67.2136 46.1939L84.6576 50.5591C88.422 43.365 85.8083 34.3917 78.8199 30.5166C77.0141 29.5153 75.021 28.9235 72.9746 28.7808L72.9745 28.7808Z" fill="#1490DF"/>
<path d="M18.7988 50.5324C22.1028 55.4224 27.5235 58.3366 33.3097 58.3334H72.0043C77.2901 58.335 82.1499 55.3491 84.6575 50.5592L57.456 33.7864L18.7988 50.5324Z" fill="#28A8EA"/>
</svg>
