<svg width="25" height="25" viewBox="0 0 25 25" fill="none" xmlns="http://www.w3.org/2000/svg">
<g clip-path="url(#clip0_728_964)">
<path d="M23.9038 25H1.09582C0.683275 25 0.390453 24.5979 0.517113 24.2053L4.14304 12.9644C4.22405 12.7132 4.45784 12.543 4.72175 12.543H20.2779C20.5418 12.543 20.7756 12.7132 20.8566 12.9644L24.4825 24.2053C24.6092 24.5979 24.3164 25 23.9038 25Z" fill="#DFEAEF"/>
<path d="M24.4832 24.2052L20.8573 12.9644C20.7763 12.7132 20.5425 12.543 20.2786 12.543H18.0879L22.1061 25H23.9045C24.317 25 24.6099 24.5979 24.4832 24.2052Z" fill="#BFCFD6"/>
<path d="M12.5005 19.0273C13.6345 19.0273 14.5537 18.4135 14.5537 17.6563C14.5537 16.899 13.6345 16.2852 12.5005 16.2852C11.3665 16.2852 10.4473 16.899 10.4473 17.6563C10.4473 18.4135 11.3665 19.0273 12.5005 19.0273Z" fill="#FFA426"/>
<path d="M12.4998 0C8.82212 0 5.84082 2.9813 5.84082 6.65894C5.84082 11.3917 11.2227 16.6677 12.3097 17.6851C12.4168 17.7854 12.5827 17.7854 12.6898 17.6851C13.7769 16.6677 19.1587 11.3917 19.1587 6.65894C19.1587 2.9813 16.1774 0 12.4998 0ZM12.4998 9.79082C10.558 9.79082 8.98394 8.21675 8.98394 6.275C8.98394 4.33325 10.558 2.75918 12.4998 2.75918C14.4415 2.75918 16.0156 4.33325 16.0156 6.275C16.0156 8.21675 14.4415 9.79082 12.4998 9.79082Z" fill="#66C1FF"/>
<path d="M12.2742 0.00419922C12.2415 0.00527344 12.2087 0.00634766 12.1761 0.00791016C12.1494 0.00917969 12.1227 0.0108887 12.096 0.0125C12.0699 0.0140625 12.0437 0.0155762 12.0178 0.0174805C11.9875 0.0196777 11.9572 0.022168 11.9271 0.0247559C11.9054 0.0266113 11.8837 0.0284668 11.8622 0.0305176C11.8289 0.0336914 11.7957 0.0371094 11.7626 0.0408203C11.7449 0.0427734 11.7273 0.0447754 11.7097 0.046875C11.6735 0.0511719 11.6374 0.0556641 11.6014 0.0605469C11.5879 0.0623535 11.5744 0.0643066 11.561 0.0662109C11.5217 0.0717773 11.4825 0.0775391 11.4434 0.0837402C11.4348 0.0851074 11.4263 0.0865723 11.4178 0.0879883C11.3745 0.0950684 11.3312 0.102441 11.2881 0.110352C14.3871 0.680225 16.7352 3.39517 16.7352 6.65894C16.7352 9.74126 14.4525 14.411 12.5602 17.753C12.6071 17.7425 12.6521 17.7205 12.6896 17.6854C12.6955 17.6799 12.7012 17.6746 12.7072 17.6689C12.7151 17.6615 12.723 17.6541 12.7313 17.6463C12.7428 17.6354 12.755 17.6239 12.7673 17.6123C12.7763 17.6038 12.7851 17.5955 12.7945 17.5865C12.8082 17.5735 12.8226 17.5598 12.8371 17.5459C12.8458 17.5377 12.8541 17.5298 12.863 17.5212C12.881 17.504 12.9 17.4857 12.9192 17.4673C12.9259 17.4608 12.9322 17.4548 12.939 17.4482C12.9653 17.4228 12.9926 17.3964 13.0209 17.3689C13.0263 17.3637 13.032 17.358 13.0375 17.3527C13.0604 17.3303 13.0838 17.3075 13.108 17.2837C13.1187 17.2732 13.1299 17.2622 13.1408 17.2514C13.1605 17.2319 13.1804 17.2123 13.201 17.192C13.2135 17.1795 13.2265 17.1666 13.2394 17.1538C13.2593 17.134 13.2793 17.114 13.2999 17.0935C13.3135 17.0797 13.3275 17.0657 13.3415 17.0517C13.3618 17.0312 13.3824 17.0105 13.4033 16.9895C13.4181 16.9745 13.4331 16.9593 13.4482 16.9439C13.4692 16.9226 13.4906 16.9009 13.5121 16.8789C13.5277 16.8629 13.5434 16.8469 13.5593 16.8306C13.5812 16.8081 13.6037 16.785 13.6262 16.7618C13.6421 16.7454 13.6579 16.7291 13.674 16.7124C13.6981 16.6874 13.7227 16.6618 13.7473 16.6361C13.7625 16.6204 13.7774 16.6048 13.7927 16.5888C13.8227 16.5574 13.8532 16.5252 13.8839 16.4928C13.8944 16.4818 13.9046 16.4711 13.9151 16.46C13.9566 16.4161 13.9986 16.3713 14.0413 16.3257C14.0512 16.315 14.0614 16.304 14.0713 16.2933C14.1041 16.2582 14.1369 16.2228 14.1702 16.1867C14.1861 16.1694 14.2023 16.1517 14.2184 16.1342C14.2464 16.1038 14.2744 16.0732 14.3027 16.0421C14.3207 16.0225 14.3388 16.0024 14.3569 15.9825C14.3838 15.9528 14.4108 15.9229 14.438 15.8927C14.4572 15.8714 14.4765 15.85 14.4958 15.8284C14.5225 15.7985 14.5494 15.7684 14.5764 15.738C14.596 15.7159 14.6157 15.6937 14.6354 15.6713C14.6629 15.6402 14.6905 15.6088 14.7183 15.5772C14.7377 15.5549 14.7573 15.5327 14.7769 15.5102C14.8055 15.4773 14.8343 15.444 14.8632 15.4106C14.8822 15.3886 14.9012 15.3667 14.9203 15.3445C14.9509 15.3088 14.9818 15.2726 15.0127 15.2363C15.0302 15.2157 15.0477 15.1954 15.0652 15.1746C15.1026 15.1305 15.1401 15.0856 15.1778 15.0407C15.189 15.0273 15.2 15.0143 15.2112 15.0008C15.2599 14.9424 15.3088 14.8833 15.3579 14.8236C15.3712 14.8073 15.3847 14.7906 15.398 14.7743C15.4338 14.7305 15.4696 14.6866 15.5055 14.6421C15.524 14.6192 15.5425 14.596 15.561 14.573C15.5919 14.5345 15.6228 14.4959 15.6538 14.4569C15.6741 14.4313 15.6944 14.4055 15.7146 14.3797C15.744 14.3425 15.7734 14.3051 15.8027 14.2674C15.8237 14.2405 15.8447 14.2134 15.8657 14.1863C15.8945 14.1491 15.9233 14.1116 15.9521 14.074C15.9732 14.0464 15.9943 14.0188 16.0153 13.9911C16.0443 13.9529 16.0732 13.9145 16.1021 13.876C16.1229 13.8483 16.1437 13.8207 16.1644 13.7928C16.194 13.753 16.2236 13.7128 16.2531 13.6727C16.2729 13.6458 16.2927 13.6189 16.3125 13.5918C16.344 13.5485 16.3754 13.5049 16.4068 13.4612C16.4244 13.4368 16.442 13.4125 16.4596 13.3878C16.4991 13.3325 16.5384 13.2767 16.5776 13.2207C16.5869 13.2075 16.5962 13.1945 16.6055 13.1812C16.6538 13.1121 16.7018 13.0423 16.7496 12.9722C16.7635 12.9518 16.7772 12.9311 16.7911 12.9105C16.8249 12.8606 16.8586 12.8107 16.892 12.7604C16.9101 12.7332 16.9279 12.7058 16.9458 12.6786C16.975 12.6343 17.004 12.5901 17.0328 12.5456C17.052 12.516 17.0709 12.4863 17.0899 12.4566C17.1173 12.4138 17.1446 12.3709 17.1717 12.3279C17.1911 12.2971 17.2104 12.2663 17.2295 12.2354C17.256 12.1928 17.2823 12.1502 17.3084 12.1074C17.3276 12.0762 17.3466 12.0448 17.3656 12.0134C17.3917 11.9702 17.4175 11.9269 17.4433 11.8834C17.4617 11.8524 17.4801 11.8213 17.4983 11.7902C17.5246 11.7454 17.5505 11.7003 17.5763 11.6553C17.5935 11.6253 17.6108 11.5954 17.6278 11.5653C17.6555 11.5164 17.6827 11.4672 17.7099 11.4181C17.7245 11.3917 17.7393 11.3654 17.7537 11.339C17.7892 11.274 17.8241 11.2088 17.8586 11.1434C17.8644 11.1326 17.8703 11.1218 17.876 11.111C17.916 11.0349 17.9553 10.9584 17.994 10.8818C18.0058 10.8584 18.0172 10.8349 18.0289 10.8114C18.0555 10.758 18.082 10.7045 18.108 10.6509C18.1223 10.6214 18.1361 10.5917 18.1502 10.5621C18.1729 10.5143 18.1955 10.4665 18.2176 10.4185C18.2324 10.3865 18.2468 10.3544 18.2613 10.3223C18.282 10.2765 18.3026 10.2306 18.3228 10.1845C18.3373 10.1515 18.3515 10.1184 18.3657 10.0853C18.3852 10.0397 18.4045 9.99404 18.4234 9.94839C18.4372 9.91528 18.4508 9.88213 18.4643 9.84892C18.4829 9.80278 18.5012 9.75659 18.5192 9.71035C18.532 9.67759 18.5448 9.64487 18.5573 9.61206C18.5755 9.56431 18.593 9.5165 18.6105 9.4687C18.6219 9.4375 18.6335 9.40635 18.6446 9.3751C18.6631 9.32295 18.6808 9.2707 18.6985 9.2185C18.7076 9.19155 18.717 9.1647 18.7259 9.13774C18.7496 9.06572 18.7724 8.99365 18.7944 8.92148C18.7966 8.91431 18.799 8.90718 18.8011 8.90005C18.825 8.8209 18.8478 8.7417 18.8695 8.66245C18.8764 8.63735 18.8826 8.61226 18.8893 8.58716C18.9037 8.53296 18.918 8.47871 18.9313 8.42446C18.9389 8.3937 18.9458 8.36294 18.9531 8.33213C18.9645 8.2834 18.9758 8.23467 18.9864 8.18594C18.9935 8.15322 19 8.12056 19.0067 8.08784C19.0163 8.04087 19.0256 7.9939 19.0343 7.94697C19.0406 7.91348 19.0464 7.87998 19.0522 7.84653C19.0602 7.80024 19.0678 7.75395 19.0749 7.70767C19.0801 7.67407 19.0851 7.64053 19.0898 7.60698C19.0963 7.56035 19.1022 7.51372 19.1079 7.46709C19.1119 7.43423 19.1159 7.40137 19.1194 7.36855C19.1246 7.32031 19.1289 7.27212 19.1331 7.22393C19.1357 7.19302 19.1387 7.16206 19.141 7.13115C19.1448 7.07822 19.1475 7.02539 19.1501 6.97261C19.1514 6.94658 19.1532 6.92051 19.1542 6.89453C19.1571 6.81587 19.1587 6.7373 19.1587 6.65894C19.1588 2.9813 16.1775 0 12.4999 0C12.4453 0 12.3909 0.00078125 12.3367 0.00205078C12.3158 0.00258789 12.295 0.00351562 12.2742 0.00419922Z" fill="#39ABEA"/>
<path d="M12.4999 19.027C12.4008 19.027 12.3035 19.022 12.2081 19.0129C12.208 19.0176 12.2074 19.0222 12.2074 19.027V20.627H5.26836C5.0877 20.627 4.92964 20.7484 4.88306 20.9229L3.79492 24.9999H4.62041L5.57471 21.4246H12.6062C12.8265 21.4246 13.005 21.246 13.005 21.0258V19.027C13.005 19.0129 13.0042 18.999 13.0028 18.9854C12.8418 19.0124 12.6734 19.027 12.4999 19.027Z" fill="#2C5871"/>
</g>
<defs>
<clipPath id="clip0_728_964">
<rect width="25" height="25" fill="white"/>
</clipPath>
</defs>
</svg>
