<svg width="24" height="24" viewBox="0 0 24 24" fill="none" xmlns="http://www.w3.org/2000/svg">
<g clip-path="url(#clip0_728_919)">
<path d="M15.9548 7.69383C20.3371 7.62689 23.9138 11.076 23.9987 15.4579C24.0111 16.1013 23.9468 16.7275 23.8144 17.3281C23.59 18.3452 23.4567 19.3801 23.4567 20.4216V22.4348C23.4567 22.7433 23.2066 22.9933 22.8982 22.9933H20.885C19.8435 22.9933 18.8085 23.1266 17.7915 23.351C17.1909 23.4835 16.5647 23.5478 15.9213 23.5353C11.5395 23.4505 8.09036 19.8739 8.15721 15.4917C8.22241 11.2144 11.6776 7.75917 15.9548 7.69383Z" fill="url(#paint0_linear_728_919)"/>
<path d="M15.9548 7.69383C20.3371 7.62689 23.9138 11.076 23.9987 15.4579C24.0111 16.1013 23.9468 16.7275 23.8144 17.3281C23.59 18.3452 23.4567 19.3801 23.4567 20.4216V22.4348C23.4567 22.7433 23.2066 22.9933 22.8982 22.9933H20.885C19.8435 22.9933 18.8085 23.1266 17.7915 23.351C17.1909 23.4835 16.5647 23.5478 15.9213 23.5353C11.5395 23.4505 8.09036 19.8739 8.15721 15.4917C8.22241 11.2144 11.6776 7.75917 15.9548 7.69383Z" fill="url(#paint1_linear_728_919)"/>
<path d="M9.80147 0.464546C4.4627 0.382984 0.105251 4.5849 0.00184496 9.92329C-0.0132956 10.707 0.0650323 11.47 0.22647 12.2017C0.49975 13.4407 0.662219 14.7016 0.662219 15.9704V18.423C0.662219 18.7988 0.966812 19.1034 1.34261 19.1034H3.7952C5.06401 19.1034 6.3249 19.2659 7.56394 19.5392C8.29566 19.7006 9.05859 19.7789 9.84229 19.7637C15.1806 19.6604 19.3825 15.3031 19.3011 9.9644C19.2216 4.75346 15.0124 0.544093 9.80147 0.464546Z" fill="url(#paint2_linear_728_919)"/>
<path d="M6.19692 9.5971C5.9243 9.30741 5.53843 9.12549 5.10915 9.12549C4.28354 9.12549 3.61426 9.79477 3.61426 10.6204C3.61426 11.0496 3.79613 11.4355 4.08587 11.7082L7.31058 14.9329C7.58325 15.2226 7.96912 15.4045 8.39836 15.4045C9.22397 15.4045 9.89325 14.7352 9.89325 13.9096C9.89325 13.4804 9.71132 13.0945 9.42164 12.8218L6.19692 9.5971Z" fill="url(#paint3_linear_728_919)"/>
<path d="M5.10915 12.1153C5.93475 12.1153 6.60403 11.446 6.60403 10.6204C6.60403 9.79477 5.93475 9.12549 5.10915 9.12549C4.28354 9.12549 3.61426 9.79477 3.61426 10.6204C3.61426 11.446 4.28354 12.1153 5.10915 12.1153Z" fill="white"/>
<path d="M10.4245 9.5971C10.1518 9.30741 9.76597 9.12549 9.33669 9.12549C8.51108 9.12549 7.8418 9.79477 7.8418 10.6204C7.8418 11.0496 8.02367 11.4355 8.31341 11.7082L11.5381 14.9329C11.8108 15.2226 12.1967 15.4045 12.6259 15.4045C13.4515 15.4045 14.1208 14.7352 14.1208 13.9096C14.1208 13.4804 13.9389 13.0945 13.6492 12.8218L10.4245 9.5971Z" fill="url(#paint4_linear_728_919)"/>
<path d="M9.33668 12.1153C10.1623 12.1153 10.8316 11.446 10.8316 10.6204C10.8316 9.79477 10.1623 9.12549 9.33668 9.12549C8.51108 9.12549 7.8418 9.79477 7.8418 10.6204C7.8418 11.446 8.51108 12.1153 9.33668 12.1153Z" fill="white"/>
<path d="M14.652 9.5971C14.3794 9.30741 13.9935 9.12549 13.5642 9.12549C12.7386 9.12549 12.0693 9.79477 12.0693 10.6204C12.0693 11.0496 12.2513 11.4355 12.5409 11.7082L15.7657 14.9329C16.0383 15.2226 16.4242 15.4045 16.8534 15.4045C17.679 15.4045 18.3483 14.7352 18.3483 13.9096C18.3483 13.4804 18.1664 13.0945 17.8767 12.8218L14.652 9.5971Z" fill="url(#paint5_linear_728_919)"/>
<path d="M13.5642 12.1153C14.3898 12.1153 15.0591 11.446 15.0591 10.6204C15.0591 9.79477 14.3898 9.12549 13.5642 9.12549C12.7386 9.12549 12.0693 9.79477 12.0693 10.6204C12.0693 11.446 12.7386 12.1153 13.5642 12.1153Z" fill="white"/>
</g>
<defs>
<linearGradient id="paint0_linear_728_919" x1="14.4791" y1="14.0162" x2="26.1099" y2="25.647" gradientUnits="userSpaceOnUse">
<stop stop-color="#A7F3CE"/>
<stop offset="1" stop-color="#61DB99"/>
</linearGradient>
<linearGradient id="paint1_linear_728_919" x1="18.2864" y1="17.8233" x2="13.3463" y2="12.8836" gradientUnits="userSpaceOnUse">
<stop stop-color="#61DB99" stop-opacity="0"/>
<stop offset="1" stop-color="#009E74"/>
</linearGradient>
<linearGradient id="paint2_linear_728_919" x1="6.12512" y1="8.55421" x2="18.4048" y2="20.8339" gradientUnits="userSpaceOnUse">
<stop stop-color="#62E1FB"/>
<stop offset="1" stop-color="#00A2F3"/>
</linearGradient>
<linearGradient id="paint3_linear_728_919" x1="8.43454" y1="13.9461" x2="1.96909" y2="7.48081" gradientUnits="userSpaceOnUse">
<stop stop-color="#00A2F3" stop-opacity="0"/>
<stop offset="1" stop-color="#0075CD"/>
</linearGradient>
<linearGradient id="paint4_linear_728_919" x1="12.6618" y1="13.9459" x2="6.19653" y2="7.48065" gradientUnits="userSpaceOnUse">
<stop stop-color="#00A2F3" stop-opacity="0"/>
<stop offset="1" stop-color="#0075CD"/>
</linearGradient>
<linearGradient id="paint5_linear_728_919" x1="16.8893" y1="13.946" x2="10.4241" y2="7.48072" gradientUnits="userSpaceOnUse">
<stop stop-color="#00A2F3" stop-opacity="0"/>
<stop offset="1" stop-color="#0075CD"/>
</linearGradient>
<clipPath id="clip0_728_919">
<rect width="24" height="24" fill="white"/>
</clipPath>
</defs>
</svg>
