<svg width="25" height="25" viewBox="0 0 25 25" fill="none" xmlns="http://www.w3.org/2000/svg">
<g clip-path="url(#clip0_728_933)">
<path d="M12.5 25C19.4036 25 25 19.4036 25 12.5C25 5.59644 19.4036 0 12.5 0C5.59644 0 0 5.59644 0 12.5C0 19.4036 5.59644 25 12.5 25Z" fill="#B5EFFF"/>
<path d="M24.9996 12.5002C24.9996 11.9955 24.9697 11.4976 24.9115 11.0085L17.3581 3.45508L7.67285 21.5771L11.008 24.9122C11.4971 24.9703 11.9948 25.0002 12.4996 25.0002C19.4032 25.0002 24.9996 19.4038 24.9996 12.5002Z" fill="#80DBFF"/>
<path d="M16.2877 21.9979H8.7125C7.8875 21.9979 7.21875 21.3291 7.21875 20.5042V4.4957C7.21875 3.6707 7.88755 3.00195 8.7125 3.00195H16.2877C17.1127 3.00195 17.7814 3.67075 17.7814 4.4957V20.5042C17.7815 21.3292 17.1127 21.9979 16.2877 21.9979Z" fill="#636978"/>
<path d="M16.2876 3.00195H12.5V21.998H16.2876C17.1126 21.998 17.7813 21.3292 17.7813 20.5042V4.4957C17.7814 3.6707 17.1126 3.00195 16.2876 3.00195Z" fill="#414952"/>
<path d="M16.0192 3.90234H14.8767C14.6371 3.90234 14.4429 4.09941 14.4429 4.34253C14.4429 4.58564 14.2487 4.78271 14.0091 4.78271H10.991C10.7515 4.78271 10.5572 4.58564 10.5572 4.34253C10.5572 4.09941 10.363 3.90234 10.1234 3.90234H8.98091C8.50874 3.90234 8.12598 4.29077 8.12598 4.76992V20.1942C8.12598 20.6733 8.50874 21.0618 8.98091 21.0618H16.0191C16.4913 21.0618 16.8741 20.6733 16.8741 20.1942V4.76992C16.8742 4.29077 16.4914 3.90234 16.0192 3.90234Z" fill="white"/>
<path d="M16.0191 3.90234H14.8766C14.637 3.90234 14.4428 4.09941 14.4428 4.34253C14.4428 4.58564 14.2486 4.78271 14.009 4.78271H12.5V21.0618H16.0191C16.4913 21.0618 16.874 20.6734 16.874 20.1942V4.76992C16.8741 4.29077 16.4913 3.90234 16.0191 3.90234Z" fill="#E9EDF5"/>
<path d="M12.5 16.9754L16.0548 14.9605V10.6255L12.5 11.954V16.9754Z" fill="#FFCE00"/>
<path d="M12.5001 16.9749L8.94531 14.9601V10.625L12.5001 11.9535V16.9749Z" fill="#FE6A16"/>
<path d="M8.94531 10.6252L12.5001 8.61035L16.0549 10.6252L12.5001 12.64L8.94531 10.6252Z" fill="#7584F2"/>
<path d="M12.5 8.61035V12.64L16.0548 10.6251L12.5 8.61035Z" fill="#606AEA"/>
</g>
<defs>
<clipPath id="clip0_728_933">
<rect width="25" height="25" fill="white"/>
</clipPath>
</defs>
</svg>
