<svg width="25" height="25" viewBox="0 0 25 25" fill="none" xmlns="http://www.w3.org/2000/svg">
<path d="M22.1572 7.09668C22.5198 7.08682 22.8808 7.15127 23.2178 7.28613C23.5546 7.42095 23.8607 7.6233 24.1172 7.88086C24.3737 8.13855 24.5756 8.44654 24.71 8.78516C24.8442 9.12372 24.9083 9.48626 24.8984 9.85059C24.8886 10.215 24.8047 10.5735 24.6523 10.9043C24.5 11.235 24.2826 11.5311 24.0127 11.7744L23.8193 11.9492H23.8652L15.7344 20.1152C15.6324 20.216 15.5053 20.287 15.3662 20.3203L15.3652 20.3213L11.8252 21.21L11.8223 21.2109C11.6897 21.2484 11.5495 21.2499 11.416 21.2158C11.2825 21.1817 11.1602 21.1124 11.0615 21.0156C10.963 20.919 10.8908 20.7983 10.8535 20.665C10.8162 20.5316 10.8145 20.3901 10.8486 20.2559H10.8496L11.7344 16.7002V16.6982C11.7593 16.5933 11.8054 16.495 11.8691 16.4092L11.9385 16.3281L20.2393 7.99023L20.2422 7.98633C20.4844 7.71518 20.7793 7.49673 21.1084 7.34375C21.4376 7.19078 21.7947 7.10656 22.1572 7.09668ZM22.1504 8.78906C22.007 8.78906 21.8647 8.81751 21.7324 8.87305C21.6005 8.92849 21.4804 9.00919 21.3799 9.11133L13.248 17.2715L13.2285 17.291L13.2217 17.3184L12.752 19.2021L12.7119 19.3643L12.874 19.3242L14.75 18.8525L14.7764 18.8457L14.7969 18.8262L22.9189 10.6572L22.9199 10.6582C23.0219 10.5571 23.103 10.4364 23.1582 10.3037C23.2134 10.1711 23.2412 10.0285 23.2412 9.88477C23.2412 9.74107 23.2133 9.59845 23.1582 9.46582C23.1168 9.36623 23.0606 9.2732 22.9922 9.19043L22.9199 9.11133C22.8194 9.00926 22.6993 8.92844 22.5674 8.87305C22.4353 8.81761 22.2936 8.78909 22.1504 8.78906ZM4.55762 16.0996H8.09766C8.30556 16.0997 8.50519 16.1832 8.65234 16.3311C8.79945 16.4789 8.88175 16.6795 8.88184 16.8887C8.88184 17.098 8.7996 17.2994 8.65234 17.4473C8.5052 17.595 8.30553 17.6776 8.09766 17.6777H4.55762C4.34972 17.6777 4.15014 17.595 4.00293 17.4473C3.85567 17.2994 3.77246 17.098 3.77246 16.8887C3.77254 16.6794 3.85575 16.4789 4.00293 16.3311C4.15016 16.1832 4.34963 16.0996 4.55762 16.0996ZM4.55762 10.7666H12.5225C12.7303 10.7667 12.93 10.8503 13.0771 10.998C13.2242 11.1459 13.3066 11.3465 13.3066 11.5557C13.3066 11.7649 13.2242 11.9654 13.0771 12.1133C12.93 12.2611 12.7303 12.3446 12.5225 12.3447H4.55762C4.34958 12.3447 4.15017 12.2612 4.00293 12.1133C3.8557 11.9654 3.77247 11.765 3.77246 11.5557C3.77246 11.3463 3.85571 11.146 4.00293 10.998C4.15017 10.8501 4.34958 10.7666 4.55762 10.7666ZM4.55762 5.43359H12.5225C12.7303 5.43371 12.93 5.51627 13.0771 5.66406C13.2244 5.81197 13.3066 6.0133 13.3066 6.22266C13.3065 6.43183 13.2242 6.63246 13.0771 6.78027C12.93 6.92806 12.7303 7.01062 12.5225 7.01074H4.55762C4.34965 7.01074 4.15016 6.92808 4.00293 6.78027C3.85577 6.63245 3.77256 6.43189 3.77246 6.22266C3.77246 6.01329 3.85567 5.81197 4.00293 5.66406C4.15015 5.51632 4.3497 5.43359 4.55762 5.43359ZM17.9316 4.76758L17.9023 4.73828L14.8848 1.70703L14.8555 1.67773H2.78809C2.52672 1.67773 2.2755 1.78227 2.09082 1.96777C1.90628 2.15324 1.80273 2.40495 1.80273 2.66699V22.2227C1.80282 22.4847 1.90623 22.7365 2.09082 22.9219C2.27549 23.1073 2.52677 23.2109 2.78809 23.2109H16.9463C17.2076 23.2109 17.4589 23.1073 17.6436 22.9219C17.8281 22.7365 17.9316 22.4847 17.9316 22.2227V20.4443C17.9317 20.235 18.0149 20.0346 18.1621 19.8867C18.3093 19.7389 18.5088 19.6553 18.7168 19.6553C18.9248 19.6553 19.1243 19.7389 19.2715 19.8867C19.4186 20.0346 19.5019 20.2351 19.502 20.4443V22.2227C19.5019 22.9034 19.232 23.5559 18.7529 24.0371C18.2738 24.5184 17.6237 24.7891 16.9463 24.7891H2.78809C2.11065 24.7891 1.4606 24.5184 0.981445 24.0371C0.502385 23.5559 0.232505 22.9034 0.232422 22.2227V2.66699C0.232422 1.98612 0.502273 1.33287 0.981445 0.851562C1.46059 0.370341 2.1107 0.0996094 2.78809 0.0996094H15.1777C15.2808 0.0990533 15.3831 0.119073 15.4785 0.158203C15.574 0.197364 15.6611 0.255195 15.7344 0.328125L19.2734 3.88281V3.88379C19.3462 3.95744 19.4043 4.04455 19.4434 4.14062C19.4825 4.23677 19.5026 4.34045 19.502 4.44434V6.22266C19.5019 6.43189 19.4186 6.63245 19.2715 6.78027C19.1243 6.92812 18.9248 7.01069 18.7168 7.01074C18.5089 7.01074 18.3093 6.92804 18.1621 6.78027C18.0149 6.63245 17.9317 6.43189 17.9316 6.22266V4.76758Z" fill="#171717" stroke="#151718" stroke-width="0.2"/>
</svg>
