<svg width="32" height="32" viewBox="0 0 32 32" fill="none" xmlns="http://www.w3.org/2000/svg">
<path d="M10.668 4.00002H12.0013C9.4013 11.7867 9.4013 20.2134 12.0013 28H10.668M20.0013 4.00002C22.6013 11.7867 22.6013 20.2134 20.0013 28M4.0013 21.3334V20C11.788 22.6 20.2146 22.6 28.0013 20V21.3334M4.0013 12C11.788 9.40002 20.2146 9.40002 28.0013 12M29.3346 16C29.3346 23.3638 23.3651 29.3334 16.0013 29.3334C8.6375 29.3334 2.66797 23.3638 2.66797 16C2.66797 8.63622 8.6375 2.66669 16.0013 2.66669C23.3651 2.66669 29.3346 8.63622 29.3346 16Z" stroke="white" stroke-width="2" stroke-linecap="round" stroke-linejoin="round"/>
</svg>
