<svg width="128" height="128" viewBox="0 0 128 128" fill="none" xmlns="http://www.w3.org/2000/svg">
<g filter="url(#filter0_d_813_890)">
<path d="M64 30C57.6348 30 51.5303 32.5286 47.0294 37.0294C42.5286 41.5303 40 47.6348 40 54C40 60.3652 42.5286 66.4697 47.0294 70.9706C51.5303 75.4714 57.6348 78 64 78L64 30Z" fill="white"/>
<path d="M64 30C70.3652 30 76.4697 32.5286 80.9706 37.0294C85.4714 41.5303 88 47.6348 88 54C88 60.3652 85.4714 66.4697 80.9706 70.9706C76.4697 75.4714 70.3652 78 64 78L64 30Z" fill="#4C40F7"/>
<path d="M53.9495 60.18C52.9655 60.18 52.0595 60.018 51.2315 59.694C50.4035 59.37 49.6835 58.92 49.0715 58.344C48.4595 57.756 47.9855 57.072 47.6495 56.292C47.3135 55.5 47.1455 54.636 47.1455 53.7C47.1455 52.764 47.3135 51.906 47.6495 51.126C47.9855 50.334 48.4595 49.65 49.0715 49.074C49.6835 48.486 50.4035 48.03 51.2315 47.706C52.0595 47.382 52.9595 47.22 53.9315 47.22C54.9155 47.22 55.8155 47.382 56.6315 47.706C57.4595 48.03 58.1795 48.486 58.7915 49.074C59.4035 49.65 59.8775 50.334 60.2135 51.126C60.5495 51.906 60.7175 52.764 60.7175 53.7C60.7175 54.636 60.5495 55.5 60.2135 56.292C59.8775 57.084 59.4035 57.768 58.7915 58.344C58.1795 58.92 57.4595 59.37 56.6315 59.694C55.8155 60.018 54.9215 60.18 53.9495 60.18ZM53.9315 58.128C54.5675 58.128 55.1555 58.02 55.6955 57.804C56.2355 57.588 56.7035 57.282 57.0995 56.886C57.4955 56.478 57.8015 56.01 58.0175 55.482C58.2455 54.942 58.3595 54.348 58.3595 53.7C58.3595 53.052 58.2455 52.464 58.0175 51.936C57.8015 51.396 57.4955 50.928 57.0995 50.532C56.7035 50.124 56.2355 49.812 55.6955 49.596C55.1555 49.38 54.5675 49.272 53.9315 49.272C53.2955 49.272 52.7075 49.38 52.1675 49.596C51.6395 49.812 51.1715 50.124 50.7635 50.532C50.3675 50.928 50.0555 51.396 49.8275 51.936C49.6115 52.464 49.5035 53.052 49.5035 53.7C49.5035 54.336 49.6115 54.924 49.8275 55.464C50.0555 56.004 50.3675 56.478 50.7635 56.886C51.1595 57.282 51.6275 57.588 52.1675 57.804C52.7075 58.02 53.2955 58.128 53.9315 58.128Z" fill="black"/>
<path d="M68.1725 60V47.4H73.3565C74.4725 47.4 75.4265 47.58 76.2185 47.94C77.0225 48.3 77.6405 48.816 78.0725 49.488C78.5045 50.16 78.7205 50.958 78.7205 51.882C78.7205 52.806 78.5045 53.604 78.0725 54.276C77.6405 54.936 77.0225 55.446 76.2185 55.806C75.4265 56.154 74.4725 56.328 73.3565 56.328H69.4685L70.5125 55.266V60H68.1725ZM76.4165 60L73.2305 55.428H75.7325L78.9365 60H76.4165ZM70.5125 55.518L69.4685 54.402H73.2485C74.2805 54.402 75.0545 54.18 75.5705 53.736C76.0985 53.292 76.3625 52.674 76.3625 51.882C76.3625 51.078 76.0985 50.46 75.5705 50.028C75.0545 49.596 74.2805 49.38 73.2485 49.38H69.4685L70.5125 48.228V55.518Z" fill="white"/>
</g>
<defs>
<filter id="filter0_d_813_890" x="0" y="0" width="128" height="128" filterUnits="userSpaceOnUse" color-interpolation-filters="sRGB">
<feFlood flood-opacity="0" result="BackgroundImageFix"/>
<feColorMatrix in="SourceAlpha" type="matrix" values="0 0 0 0 0 0 0 0 0 0 0 0 0 0 0 0 0 0 127 0" result="hardAlpha"/>
<feOffset dy="10"/>
<feGaussianBlur stdDeviation="20"/>
<feComposite in2="hardAlpha" operator="out"/>
<feColorMatrix type="matrix" values="0 0 0 0 0 0 0 0 0 0 0 0 0 0 0 0 0 0 0.19 0"/>
<feBlend mode="normal" in2="BackgroundImageFix" result="effect1_dropShadow_813_890"/>
<feBlend mode="normal" in="SourceGraphic" in2="effect1_dropShadow_813_890" result="shape"/>
</filter>
</defs>
</svg>
