<svg width="159" height="40" viewBox="0 0 159 40" fill="none" xmlns="http://www.w3.org/2000/svg">
<path d="M51.85 33.245C50.1467 33.245 48.6067 32.9533 47.23 32.37C45.8767 31.7867 44.8033 30.9467 44.01 29.85C43.2167 28.7533 42.8083 27.4583 42.785 25.965H48.035C48.105 26.9683 48.455 27.7617 49.085 28.345C49.7383 28.9283 50.625 29.22 51.745 29.22C52.8883 29.22 53.7867 28.9517 54.44 28.415C55.0933 27.855 55.42 27.1317 55.42 26.245C55.42 25.5217 55.1983 24.9267 54.755 24.46C54.3117 23.9933 53.7517 23.6317 53.075 23.375C52.4217 23.095 51.5117 22.7917 50.345 22.465C48.7583 21.9983 47.4633 21.5433 46.46 21.1C45.48 20.6333 44.6283 19.945 43.905 19.035C43.205 18.1017 42.855 16.865 42.855 15.325C42.855 13.8783 43.2167 12.6183 43.94 11.545C44.6633 10.4717 45.6783 9.655 46.985 9.095C48.2917 8.51167 49.785 8.22 51.465 8.22C53.985 8.22 56.0267 8.83833 57.59 10.075C59.1767 11.2883 60.0517 12.9917 60.215 15.185H54.825C54.7783 14.345 54.4167 13.6567 53.74 13.12C53.0867 12.56 52.2117 12.28 51.115 12.28C50.1583 12.28 49.3883 12.525 48.805 13.015C48.245 13.505 47.965 14.2167 47.965 15.15C47.965 15.8033 48.175 16.3517 48.595 16.795C49.0383 17.215 49.575 17.565 50.205 17.845C50.8583 18.1017 51.7683 18.405 52.935 18.755C54.5217 19.2217 55.8167 19.6883 56.82 20.155C57.8233 20.6217 58.6867 21.3217 59.41 22.255C60.1333 23.1883 60.495 24.4133 60.495 25.93C60.495 27.2367 60.1567 28.45 59.48 29.57C58.8033 30.69 57.8117 31.5883 56.505 32.265C55.1983 32.9183 53.6467 33.245 51.85 33.245ZM67.2281 11.3C66.3648 11.3 65.6415 11.0317 65.0581 10.495C64.4981 9.935 64.2181 9.24667 64.2181 8.43C64.2181 7.61333 64.4981 6.93666 65.0581 6.4C65.6415 5.84 66.3648 5.56 67.2281 5.56C68.0915 5.56 68.8031 5.84 69.3631 6.4C69.9465 6.93666 70.2381 7.61333 70.2381 8.43C70.2381 9.24667 69.9465 9.935 69.3631 10.495C68.8031 11.0317 68.0915 11.3 67.2281 11.3ZM69.6431 13.61V33H64.7431V13.61H69.6431ZM85.1943 33L81.2043 26.98L77.6693 33H72.4193L78.7543 23.27L72.3493 13.61H77.8793L81.8343 19.595L85.4043 13.61H90.6543L84.2843 23.27L90.7243 33H85.1943ZM92.1257 23.235C92.1257 21.275 92.5107 19.5367 93.2807 18.02C94.074 16.5033 95.1357 15.3367 96.4657 14.52C97.819 13.7033 99.324 13.295 100.981 13.295C102.427 13.295 103.687 13.5867 104.761 14.17C105.857 14.7533 106.732 15.4883 107.386 16.375V13.61H112.321V33H107.386V30.165C106.756 31.075 105.881 31.8333 104.761 32.44C103.664 33.0233 102.392 33.315 100.946 33.315C99.3124 33.315 97.819 32.895 96.4657 32.055C95.1357 31.215 94.074 30.0367 93.2807 28.52C92.5107 26.98 92.1257 25.2183 92.1257 23.235ZM107.386 23.305C107.386 22.115 107.152 21.1 106.686 20.26C106.219 19.3967 105.589 18.7433 104.796 18.3C104.002 17.8333 103.151 17.6 102.241 17.6C101.331 17.6 100.491 17.8217 99.7207 18.265C98.9507 18.7083 98.3207 19.3617 97.8307 20.225C97.364 21.065 97.1307 22.0683 97.1307 23.235C97.1307 24.4017 97.364 25.4283 97.8307 26.315C98.3207 27.1783 98.9507 27.8433 99.7207 28.31C100.514 28.7767 101.354 29.01 102.241 29.01C103.151 29.01 104.002 28.7883 104.796 28.345C105.589 27.8783 106.219 27.225 106.686 26.385C107.152 25.5217 107.386 24.495 107.386 23.305ZM122.006 16.62C122.636 15.5933 123.453 14.7883 124.456 14.205C125.483 13.6217 126.65 13.33 127.956 13.33V18.475H126.661C125.121 18.475 123.955 18.8367 123.161 19.56C122.391 20.2833 122.006 21.5433 122.006 23.34V33H117.106V13.61H122.006V16.62ZM136.962 17.635V27.015C136.962 27.6683 137.113 28.1467 137.417 28.45C137.743 28.73 138.28 28.87 139.027 28.87H141.302V33H138.222C134.092 33 132.027 30.9933 132.027 26.98V17.635H129.717V13.61H132.027V8.815H136.962V13.61H141.302V17.635H136.962Z" fill="white"/>
<g clip-path="url(#clip0_396_42)">
<path d="M12.5996 27.8373C5.10724 26.6952 -0.55025 20.3569 0.0307895 12.9336C0.581248 6.08137 6.51397 0.571022 13.8228 0.0571035C21.7739 -0.513917 28.5629 4.76802 29.7861 11.7916C30.0002 12.9622 29.0216 14.0186 27.7372 14.0186H27.5843C26.5751 14.0186 25.7189 13.3048 25.5354 12.3626C24.6791 7.39472 19.8779 3.65453 14.2204 4.0257C8.92987 4.36831 4.67911 8.36545 4.31214 13.3048C3.91458 18.5582 7.9207 23.0407 13.2418 23.8687C14.251 24.0114 15.0155 24.8109 15.0155 25.7816V25.9243C14.9849 27.1235 13.8534 28.0086 12.5996 27.8373Z" fill="#FF7425"/>
<path d="M14.9849 25.7816C14.9849 24.8394 14.2204 24.04 13.2112 23.8687C10.4589 23.4404 8.04301 22.0128 6.42221 19.9857C5.4742 21.1563 4.832 22.4982 4.49561 23.9829C6.66686 25.9814 9.48032 27.3519 12.5996 27.8087C13.8534 28.0086 14.9849 27.0949 14.9849 25.8958V25.7816Z" fill="#6864ED"/>
<path d="M16.1471 39.9714C8.19602 40.5425 1.40703 35.2605 0.183789 28.237C-0.0302783 27.0664 0.948315 26.01 2.23272 26.01H2.38562C3.3948 26.01 4.25107 26.7238 4.43455 27.6659C5.3214 32.6338 10.1226 36.374 15.7801 36.0028C21.0706 35.6602 25.3214 31.6631 25.719 26.7238C26.1165 21.4418 22.1104 16.9593 16.7893 16.1313C15.7495 15.9886 14.985 15.1891 14.985 14.2184V14.0756C14.985 12.8765 16.1165 11.9914 17.3703 12.1627C24.8627 13.3048 30.5202 19.6431 29.9391 27.0664C29.3887 33.9186 23.4865 39.4575 16.1471 39.9714Z" fill="#33CC79"/>
<path d="M14.9849 14.2184C14.9849 15.1606 15.7494 15.96 16.7586 16.1313C19.5414 16.5596 21.9573 17.9871 23.5781 20.0143C24.5261 18.8437 25.1684 17.5018 25.5047 16.0171C23.3335 14.0185 20.52 12.6481 17.4008 12.1913C16.1469 11.9914 14.9849 12.9051 14.9849 14.0757V14.2184Z" fill="#EED064"/>
<path d="M14.9851 30.2926C17.5185 30.2926 19.5723 28.3752 19.5723 26.01C19.5723 23.6447 17.5185 21.7273 14.9851 21.7273C12.4517 21.7273 10.3979 23.6447 10.3979 26.01C10.3979 28.3752 12.4517 30.2926 14.9851 30.2926Z" fill="#6864ED"/>
<path d="M14.9851 18.2727C17.5185 18.2727 19.5723 16.3553 19.5723 13.99C19.5723 11.6248 17.5185 9.70737 14.9851 9.70737C12.4517 9.70737 10.3979 11.6248 10.3979 13.99C10.3979 16.3553 12.4517 18.2727 14.9851 18.2727Z" fill="#EED064"/>
</g>
<defs>
<clipPath id="clip0_396_42">
<rect width="30" height="40" fill="white"/>
</clipPath>
</defs>
</svg>
