<svg width="17" height="15" viewBox="0 0 17 15" fill="none" xmlns="http://www.w3.org/2000/svg">
<path d="M13.9375 0.900391C15.124 0.900391 16.0995 1.8104 16.0996 2.94238V9.21191C16.0996 10.3438 15.1241 11.2549 13.9375 11.2549H7.4248L3.10938 14.084L2.95508 14.1855V11.25C1.81748 11.1971 0.900391 10.3096 0.900391 9.21191V2.94238C0.900535 1.8104 1.87599 0.900391 3.0625 0.900391H13.9375ZM3.0625 1.92773C2.45961 1.92773 1.97866 2.38853 1.97852 2.94238V9.21191C1.97852 9.76572 2.45953 10.2266 3.0625 10.2266H4.03418V12.2295L7.06445 10.2432L7.08984 10.2266H13.9375C14.5405 10.2266 15.0215 9.76572 15.0215 9.21191V2.94238C15.0213 2.38853 14.5404 1.92773 13.9375 1.92773H3.0625Z" fill="#4C40F7" stroke="#4C40F7" stroke-width="0.2"/>
<path d="M12.0996 3.90039V5.09961H4.90039V3.90039H12.0996Z" fill="#4C40F7" stroke="#4C40F7" stroke-width="0.2"/>
<path d="M12.0996 6.90039V8.09961H4.90039V6.90039H12.0996Z" fill="#4C40F7" stroke="#4C40F7" stroke-width="0.2"/>
</svg>
