<svg width="18" height="16" viewBox="0 0 18 16" fill="none" xmlns="http://www.w3.org/2000/svg">
<path d="M9 0.849609C10.9095 0.849609 12.7054 1.59409 14.0557 2.94434C15.4059 4.29458 16.1504 6.09037 16.1504 8C16.1504 9.90952 15.4059 11.7054 14.0557 13.0557C12.7054 14.4059 10.9095 15.1504 9 15.1504C7.09037 15.1504 5.29458 14.4059 3.94434 13.0557C2.59409 11.7054 1.84961 9.90952 1.84961 8C1.84961 6.09037 2.59409 4.29458 3.94434 2.94434C5.29458 1.59409 7.09037 0.849609 9 0.849609ZM9 10.3174C7.36892 10.3174 5.99559 11.462 5.67773 13.0273C6.6312 13.6596 7.77272 14.0293 9 14.0293C10.227 14.0293 11.368 13.6593 12.3213 13.0273C12.0034 11.4621 10.6311 10.3174 9 10.3174ZM9 1.9707C5.67534 1.9707 2.9707 4.67534 2.9707 8C2.9707 9.65696 3.64341 11.1587 4.72949 12.25C4.97499 11.5321 5.39879 10.8818 5.97168 10.3633C6.29487 10.0708 6.65545 9.82939 7.04102 9.64355C6.28952 9.0586 5.80371 8.14591 5.80371 7.12109C5.80386 5.35877 7.23764 3.92578 9 3.92578C10.7624 3.92578 12.1961 5.35876 12.1963 7.12109C12.1963 8.14619 11.7099 9.05862 10.958 9.64355C11.3439 9.82948 11.7049 10.0706 12.0283 10.3633C12.6012 10.8818 13.024 11.5323 13.2695 12.25C14.3559 11.1587 15.0293 9.65728 15.0293 8C15.0293 4.67534 12.3247 1.9707 9 1.9707ZM9 5.0459C7.85567 5.0459 6.92398 5.9767 6.92383 7.12109C6.92383 8.26552 7.85558 9.19727 9 9.19727C10.1444 9.19727 11.0762 8.26552 11.0762 7.12109C11.076 5.9768 10.1443 5.0459 9 5.0459Z" fill="#4C40F7" stroke="#4C40F7" stroke-width="0.3"/>
</svg>
